<?xml version="1.0" encoding="UTF-8"?><svg id="Layer_2" xmlns="http://www.w3.org/2000/svg" xmlns:xlink="http://www.w3.org/1999/xlink" viewBox="0 0 827.58 868.09"><defs><clipPath id="clippath"><rect width="827.58" height="868.09" style="fill:none;"/></clipPath></defs><g id="Layer_1-2"><g style="clip-path:url(#clippath);"><g id="Group_776"><path id="Path_1579" d="m471.38,46.72c-6.58,24.18-17.8,63.2-22.58,87.82-5,23.18-7.21,46.87-6.57,70.57,1.16,25.37,13.42,39.03,34.16,39.09,30.91.08,113.39-32.42,151.6-66-28.93-65.93-86.55-114.91-156.28-132.85-.11.45-.2.87-.35,1.39m-11.32,128.59c-.59,1.35-1.93,2.22-3.4,2.22-.49,0-.98-.1-1.42-.3-1.88-.79-2.76-2.96-1.96-4.84.79-1.88,2.96-2.76,4.84-1.96,1.88.79,2.76,2.96,1.96,4.84,0,.01-.01.03-.02.04m3.05-42.14c-2.54-.93-3.86-3.73-2.96-6.28.9-2.55,3.7-3.89,6.26-2.99s3.89,3.7,2.99,6.26c-.68,1.94-2.5,3.24-4.55,3.27-.59,0-1.17-.08-1.74-.25m9.84,49.39c-.68,1.11-1.9,1.78-3.2,1.77-.68-.02-1.34-.2-1.92-.54-1.74-1.08-2.28-3.36-1.2-5.1,1.08-1.74,3.36-2.28,5.1-1.2,1.73,1.07,2.27,3.33,1.22,5.07m11.81,8.9c-.7.86-1.75,1.36-2.85,1.38-.86,0-1.69-.3-2.36-.84-1.59-1.29-1.84-3.63-.55-5.22,1.29-1.59,3.63-1.84,5.22-.55,1.59,1.29,1.84,3.63.55,5.22,0,0,0,0,0,.01m10.42,10.39c-.67.66-1.57,1.04-2.51,1.04-2.07.04-3.78-1.6-3.82-3.67-.04-2.07,1.6-3.78,3.67-3.82,2.07-.04,3.78,1.6,3.82,3.67.02,1.05-.4,2.06-1.16,2.78m-3.65-60.9c1.45-2.32,4.51-3.03,6.83-1.57,2.32,1.45,3.03,4.51,1.57,6.83-1.45,2.32-4.51,3.03-6.83,1.57-.01,0-.02-.01-.03-.02v-.05c-2.29-1.44-2.98-4.46-1.54-6.75,0,0,0,0,0,0m12.66,72.67c-.65.42-1.4.64-2.17.64-2.03,0-3.67-1.65-3.66-3.68,0-2.03,1.65-3.67,3.68-3.66,1.19,0,2.3.58,2.99,1.55,1.17,1.67.8,3.96-.84,5.17m7.29,12.81c-1.82.94-4.05.23-4.98-1.59-.93-1.8-.24-4,1.54-4.96,1.79-.94,4.01-.25,4.95,1.54,0,.01.01.02.02.04.97,1.75.33,3.95-1.42,4.92-.04.02-.07.04-.11.06m25.58-44.58c-.86.64-1.9,1.01-2.98,1.06-2.72.08-4.99-2.07-5.06-4.79-.04-1.59.68-3.1,1.94-4.06,2.14-1.7,5.24-1.34,6.94.8s1.34,5.24-.8,6.94h0m6.95,15.11c-2.72.07-4.98-2.07-5.06-4.79s2.07-4.98,4.79-5.06c2.72-.07,4.98,2.07,5.06,4.79.05,1.74-.83,3.38-2.31,4.3-.74.48-1.61.74-2.49.75m10.35,14.58c-.63.29-1.31.46-2,.49-2.72.1-5-2.02-5.1-4.74-.07-1.95,1.02-3.76,2.78-4.61,2.47-1.15,5.4-.12,6.61,2.32,1.16,2.45.13,5.39-2.32,6.57m41.97-28.65c1.83,3.64.37,8.07-3.26,9.91-.01,0-.03.01-.04.02-.87.42-1.8.67-2.76.75-4.08.27-7.6-2.82-7.87-6.9-.19-2.97,1.4-5.76,4.06-7.1,3.64-1.81,8.06-.32,9.88,3.32m-21.61-22.15c3.42-2.22,7.99-1.24,10.21,2.18,2.22,3.42,1.24,7.99-2.18,10.21-1.03.7-2.23,1.11-3.47,1.19-2.69.21-5.27-1.07-6.72-3.35-2.24-3.41-1.29-7.98,2.12-10.21.01,0,.02-.01.03-.02m-13.74-17.37c3.22-2.5,7.86-1.92,10.37,1.3,2.4,3.09,1.97,7.52-.97,10.09-1.2.95-2.65,1.53-4.17,1.65-4.06.3-7.59-2.75-7.89-6.81-.17-2.39.82-4.72,2.68-6.24m-15.6-15.73c2.81-2.93,7.46-3.03,10.39-.22.01.01.02.02.03.03v.05c2.93,2.81,3.02,7.46.21,10.39-.01.01-.02.02-.03.03-1.26,1.32-2.96,2.11-4.77,2.23-4.06.31-7.6-2.73-7.91-6.79-.16-2.12.6-4.2,2.08-5.72m-17.28-13.9c2.44-3.21,7.02-3.83,10.23-1.39.03.02.06.05.09.07l.04-.05c3.29,2.42,3.99,7.05,1.56,10.34-2.42,3.29-7.05,3.99-10.34,1.56-.09-.07-.18-.14-.27-.21-3.21-2.44-3.83-7.02-1.39-10.22.03-.03.05-.07.08-.1m-2.14,54.78c-.88.92-2.09,1.44-3.36,1.46-1.34.02-2.63-.5-3.58-1.44-1.93-1.92-1.95-5.04-.03-6.98,1.92-1.93,5.04-1.95,6.98-.03,1.93,1.92,1.95,5.04.03,6.98,0,0-.02.02-.03.03m-16.58-66.67c2.13-3.47,6.66-4.55,10.13-2.42,3.47,2.13,4.55,6.66,2.42,10.13-2.12,3.46-6.65,4.55-10.12,2.43-3.47-2.13-4.56-6.66-2.44-10.14m-3.51,48.63c1.63-2.1,4.66-2.48,6.76-.85.04.03.08.06.11.09l.05-.05c2.11,1.71,2.44,4.81.73,6.92,0,0-.01.02-.02.03-.89,1.15-2.25,1.84-3.7,1.86-1.17.02-2.32-.36-3.23-1.1h.05c-2.1-1.64-2.48-4.67-.85-6.77.03-.04.06-.08.09-.12m-16.47-58.3c1.71-3.71,6.11-5.34,9.83-3.62,3.71,1.71,5.34,6.11,3.62,9.83h0c-1.71,3.71-6.11,5.34-9.83,3.62-3.71-1.71-5.34-6.11-3.62-9.83m-4.34,45.11c-.82,1.65-2.48,2.71-4.32,2.77-2.72.05-4.96-2.11-5.01-4.83-.05-2.72,2.11-4.96,4.83-5.01.77-.01,1.53.15,2.22.48,2.45,1.19,3.47,4.14,2.28,6.59m-7.23-57.19c3.87,1.27,5.98,5.43,4.71,9.3-.93,2.83-3.47,4.83-6.44,5.05-.98.09-1.96-.02-2.89-.33-3.87-1.28-5.97-5.46-4.7-9.33,1.28-3.87,5.46-5.97,9.33-4.7"/><path id="Path_1580" d="m359.16,243.7c15.16-.98,23.62-14.68,25.92-33.29,1.75-20.24.64-40.63-3.28-60.57-4.72-29.91-17.27-73.95-25.31-103.11-.15-.53-.24-.96-.34-1.41-67.01,17.25-122.98,63.21-152.93,125.59,37.83,36.73,130.63,74.42,155.94,72.78m14.7-71.6c.8,1.88-.05,4.05-1.92,4.88-.47.19-.97.29-1.48.3-1.48-.02-2.81-.9-3.4-2.26-.73-1.91.22-4.04,2.13-4.77,1.81-.69,3.84.13,4.66,1.88m-4.63-46.44c.88,2.55-.47,5.33-3.01,6.21-.01,0-.03,0-.04.01-.48.17-.97.26-1.48.28-2.72.08-5-2.06-5.08-4.79-.08-2.72,2.06-5,4.79-5.08,2.17-.06,4.12,1.29,4.82,3.35m-16.9-46.47c3.85-1.33,8.06.72,9.38,4.58,1.33,3.85-.72,8.06-4.58,9.38-.13.05-.27.09-.41.13v.05c-.65.2-1.33.29-2.01.29-4.08.08-7.45-3.17-7.52-7.25-.06-3.26,2.03-6.18,5.13-7.17m-29.06,69.55c1.68,2.14,1.31,5.23-.82,6.91-.82.66-1.84,1.04-2.89,1.05-1.58.07-3.09-.63-4.05-1.88-1.68-2.15-1.3-5.25.84-6.93,2.15-1.68,5.25-1.3,6.93.84h0m-12.84-51c3.53-2.05,8.06-.85,10.11,2.69,2.05,3.53.85,8.06-2.69,10.11-1.08.6-2.29.93-3.52.96-4.07.13-7.47-3.07-7.6-7.14-.08-2.72,1.34-5.26,3.69-6.62m-65.05,89.01c-1.24,2.42-3.7,3.98-6.42,4.05-1.23.03-2.44-.26-3.51-.86-3.63-1.87-5.05-6.32-3.19-9.94,1.87-3.63,6.32-5.05,9.94-3.19,3.63,1.87,5.05,6.32,3.19,9.94,0,0,0,0,0,.01m10.87-18.31c-1.33,2.02-3.57,3.25-5.99,3.28-1.52.03-3.02-.42-4.27-1.29-3.38-2.28-4.27-6.87-1.99-10.26,2.28-3.38,6.87-4.27,10.26-1.99,3.38,2.28,4.27,6.87,2,10.25m12.88-16.98c-2.65,3.09-7.31,3.45-10.4.8-3.09-2.65-3.45-7.31-.8-10.4,2.64-3.08,7.28-3.45,10.38-.82,3.1,2.65,3.48,7.31.83,10.42,0,0,0,0,0,0m4.59-26.21c2.97-2.79,7.64-2.64,10.43.34,2.79,2.97,2.64,7.64-.34,10.43h0c-1.32,1.26-3.06,1.97-4.88,1.98-2.09.06-4.1-.78-5.52-2.32-2.8-2.94-2.69-7.59.25-10.4.02-.02.04-.04.06-.05m7.03,81.83c-1.21,2.44-4.16,3.43-6.6,2.22-2.43-1.21-3.43-4.16-2.22-6.6h0c1.23-2.42,4.17-3.41,6.61-2.22,2.43,1.2,3.43,4.14,2.23,6.57,0,.01-.01.02-.02.03m8.24-14.54c-.9,1.39-2.44,2.24-4.09,2.26-.97.04-1.92-.24-2.73-.78-2.29-1.46-2.96-4.51-1.5-6.8,0,0,0-.01.01-.02,1.5-2.25,4.51-2.91,6.81-1.49,2.28,1.47,2.93,4.51,1.46,6.78,0,.01-.01.02-.02.03h.06Zm9.78-13.48v-.05c-1.71,2.12-4.81,2.44-6.93.73-2.12-1.71-2.44-4.81-.73-6.93,1.7-2.11,4.79-2.44,6.91-.75,2.1,1.74,2.43,4.83.75,6.98m1.38-56.74c-3.27,2.45-7.9,1.78-10.35-1.49-2.45-3.27-1.78-7.9,1.49-10.35,3.27-2.45,7.9-1.78,10.35,1.49,0,0,.01.01.02.02,2.43,3.27,1.76,7.89-1.51,10.33m9.8,44.39c-.9.88-2.1,1.39-3.36,1.41-1.34.05-2.65-.48-3.58-1.44-1.91-1.94-1.9-5.07.03-6.99,1.9-1.9,4.97-1.9,6.87,0,.03.03.05.05.08.08,1.91,1.93,1.9,5.03-.03,6.94,0,0,0,0,0,0m10.42,57.61c-.64,1.21-1.89,1.97-3.25,1.97-.62,0-1.22-.16-1.77-.44-1.78-.97-2.45-3.18-1.52-4.98.96-1.81,3.2-2.5,5.01-1.54,1.81.96,2.5,3.2,1.54,5.01h0m7.53-12.07v-.04c-.69.98-1.81,1.57-3,1.57-2.04-.02-3.68-1.7-3.65-3.74.02-2.04,1.7-3.68,3.74-3.65.76,0,1.49.25,2.11.69,1.66,1.19,2.04,3.49.85,5.15,0,0,0,.01-.01.02m9.11-11c-.72.72-1.69,1.13-2.7,1.13-.94,0-1.84-.37-2.51-1.03-1.46-1.41-1.52-3.72-.14-5.21,1.4-1.47,3.73-1.52,5.2-.11,0,0,0,0,.01.01,1.46,1.41,1.52,3.73.14,5.21m-.89-55.13c-.75.47-1.61.72-2.49.75-2.74.08-5.03-2.08-5.11-4.82-.08-2.74,2.08-5.03,4.82-5.11,2.74-.08,5.03,2.08,5.11,4.82.05,1.76-.84,3.42-2.33,4.36m.75-45.32c-3.73,1.67-8.1,0-9.77-3.73-1.67-3.73,0-8.1,3.73-9.77,3.72-1.66,8.09,0,9.76,3.71,1.67,3.73,0,8.11-3.72,9.78m10.65,90.8c-.66.52-1.48.8-2.32.79-1.11,0-2.16-.51-2.85-1.38-1.28-1.58-1.04-3.89.54-5.18,1.6-1.28,3.93-1.02,5.21.58s1.02,3.93-.58,5.21m3.25-53.45c-.63.31-1.31.48-2.01.49-1.95.05-3.74-1.07-4.55-2.84-1.16-2.45-.12-5.38,2.33-6.54.01,0,.02-.01.04-.02h-.05c2.46-1.19,5.41-.16,6.6,2.3,1.19,2.46.16,5.41-2.3,6.6-.02,0-.03.02-.05.02m3.39,44c-1.03-1.74-.46-3.99,1.28-5.03,1.74-1.03,3.99-.46,5.03,1.28h0c1.05,1.71.52,3.95-1.19,5-.01,0-.03.02-.04.02v.05c-.59.33-1.25.5-1.93.49-1.3,0-2.5-.7-3.15-1.82"/><path id="Path_1581" d="m266.77,69.35c3.59-1.81,5.03-6.18,3.22-9.77-.3-.59-.67-1.13-1.11-1.62l-7.97-10.89-3.59,2.62,7.59,10.38c2.03,2.78,2.16,4.41-.22,6.14-2.5,1.82-4.13.99-6.08-1.67l-7.53-10.31-3.61,2.64,7.9,10.79c1.76,3.48,6.01,4.87,9.49,3.11.72-.36,1.37-.85,1.92-1.43"/><path id="Path_1582" d="m285.27,56.6l-7.45-12.89,14.43,8.88,4.45-2.57-10.55-18.27-3.51,2.02,7.47,12.95-14.34-9-4.63,2.66,10.55,18.27,3.57-2.04Z"/><rect id="Rectangle_344" x="301.08" y="24.5" width="4.45" height="21.1" transform="translate(13.91 132.39) rotate(-25.18)"/><path id="Path_1583" d="m316.98,21.78l6.16,16.21,4.18-1.58-6.16-16.21,5.69-2.16-1.35-3.55-15.63,5.93,1.34,3.54,5.77-2.18Z"/><path id="Path_1584" d="m354.17,28.12l-1-3.65-8.98,2.48-1.31-4.75,7.98-2.19-.97-3.54-7.98,2.19-1.31-4.77,8.48-2.32-1-3.65-12.74,3.51,5.6,20.35,13.23-3.66Z"/><path id="Path_1585" d="m369.93,24.93c5.43-.32,9.57-4.98,9.25-10.4-.04-.72-.16-1.43-.36-2.13-.22-5.07-4.51-9.01-9.58-8.79-.8.03-1.6.17-2.37.42l-7.24,1.22,3.54,20.84,6.76-1.16Zm-2.82-17.29c4.11-.69,6.37.58,7.24,5.74.74,4.31-.47,7.21-5.21,8.02l-2.17.36-2.32-13.7,2.45-.42Z"/><rect id="Rectangle_345" x="399.23" y=".36" width="4.45" height="21.13" transform="translate(-.11 16.57) rotate(-2.36)"/><path id="Path_1586" d="m418.91,6.37l7.43,15.24,5.14.21.87-21.11-4.05-.17-.61,14.96-7.27-15.27-5.32-.23-.87,21.11,4.05.17.63-14.91Z"/><path id="Path_1587" d="m458.78,8.68h.11l1.29,17.22,3.93.82,8.2-15.22h.12l-3.37,16.21,4.05.85,4.3-20.68-6.47-1.34-7.43,14.22h-.12l-1.16-16-6.5-1.35-4.3,20.68,3.98.83,3.38-16.22Z"/><path id="Path_1588" d="m497.02,32.09l-8.86-2.89,1.53-4.68,7.87,2.56,1.16-3.47-7.87-2.56,1.54-4.72,8.37,2.73,1.16-3.57-12.61-4.13-6.58,20.08,13.09,4.27,1.21-3.61Z"/><path id="Path_1589" d="m511.66,33.42l2.62,1.16.58,8.99,4.39,1.92-.67-10.25c2.57-.02,4.86-1.64,5.74-4.05,1.25-2.85.8-6.14-3.95-8.22l-7.46-3.27-8.49,19.31,4.05,1.77,3.2-7.36Zm3.81-8.68l2.25.98c2.18.95,3.01,2.14,2.2,3.98-.96,2.19-2.84,2.22-4.74,1.4l-2.09-.91,2.39-5.45Z"/><path id="Path_1590" d="m533.73,53.67c3.48,2.44,8.26,1.69,10.83-1.69l-3.16-2.59c-1.27,1.89-3.83,2.39-5.72,1.12-.02-.02-.05-.03-.07-.05-2.89-1.62-3.47-4.27-.93-8.78,2.45-4.37,5.3-5.3,8.27-3.63,2.32,1.31,2.85,3.02,1.61,5.76l3.72,1.7c2.13-3.45,1.05-7.97-2.4-10.1-.34-.21-.7-.39-1.07-.55-4.6-2.84-10.63-1.41-13.47,3.19-.31.5-.57,1.03-.79,1.58-3.21,3.83-2.71,9.53,1.12,12.74.62.52,1.32.96,2.06,1.3"/><path id="Path_1591" d="m560.71,61l13.14-6.88-3.69-2.58-8.81,4.88-.12-.08,1.43-10.04-4-2.79-1.65,14.97-4.54,6.48,3.67,2.56,4.57-6.53Z"/><path id="Path_1592" d="m45,641.77c0,.76-.52,1.42-1.26,1.61-4.04,1.37-8.29,2.01-12.55,1.89-13.99,0-22.58-9.33-22.58-26.81s9.15-26.9,23.22-26.9c3.88.04,7.72.71,11.39,1.97.89.27,1.08.81,1.16,1.62l1.53,8.51,6.09.36v-14.36c-6.04-3.39-12.89-5.06-19.81-4.84C10.68,584.82.01,598.98.01,618.44s8.79,33.53,30.69,33.53c7.47.36,14.89-1.28,21.52-4.75v-13.54h-5.77l-1.44,8.09Z"/><path id="Path_1593" d="m91.42,645l.27.08.8,5.83h12.56v-4.84l-4.57-.63c-1.34-.18-1.44-.36-1.44-1.79v-23.74c0-12.37-4.3-15.96-17.03-15.96-7.08,0-17.31,1.26-17.31,12.28l7.71.81c.09-6.72,4.05-6.9,9.51-6.9,7.8,0,9.05,3.22,9.05,9.77v4.75l-12.11.98c-10.76.9-16.32,5.11-16.32,14.08-.67,6.14,3.76,11.65,9.9,12.32.91.1,1.83.09,2.74-.04,6.12-.07,11.96-2.59,16.21-6.99m-20.44-6.18c0-4.67,2.15-6.91,9.84-7.63l10.13-.9v8.42c-3.66,3.78-8.5,6.22-13.72,6.91-4.22,0-6.28-1.97-6.28-6.81"/><path id="Path_1594" d="m139.07,643.47c-2.65,1.1-5.48,1.7-8.34,1.79-5.11,0-6.46-2.15-6.46-7.8v-26.45h13.9v-6.18h-13.18c-.72,0-.72-.36-.72-.89v-10.97h-5.3c-1.16,9.14-3.14,11.92-10.13,12.82v5.21h6.54c.72,0,.72.36.72.9v27.97c0,8.07,3.86,12.11,12.47,12.11,4.29-.13,8.52-1.07,12.46-2.78l-1.96-5.73Z"/><path id="Path_1595" d="m155.24,591.57v52.11c0,1.35-.18,1.62-1.43,1.79l-4.48.54v4.93h20.53v-4.84l-5.02-.63c-1.34-.18-1.44-.36-1.44-1.79v-26.98c3.97-3.41,8.94-5.46,14.17-5.82,6.37,0,7.53,5.29,7.53,11.92v20.89c0,1.26-.45,1.71-1.62,1.79l-4.31.54v4.93h20.62v-4.84l-5.11-.63c-1.34-.18-1.44-.36-1.44-1.79v-23.43c0-10.13-4.21-16.32-13.8-16.32-5.87.17-11.53,2.23-16.13,5.89v-26.63h-13.8l-.81,4.75,5.38,1.7c.9.27,1.16.9,1.16,1.89"/><path id="Path_1596" d="m243.52,647.96l-2.6-6.1c-3.95,2.18-8.4,3.3-12.91,3.22-9.77,0-13.45-6.18-13.72-15.24h30.11c.09-1.52.18-3.31.18-4.48,0-15.51-7.53-21.42-18.47-21.42s-20.44,7.62-20.44,24.02c0,13.36,5.29,24.03,21.52,24.03,5.7.09,11.33-1.31,16.32-4.05m-17.37-37.47c5.47,0,10.13,2.96,10.31,13.17h-22.05c.72-9.95,5.74-13.17,11.74-13.17"/><path id="Path_1597" d="m277.51,610.93c.8,0,.99.18,1.07.9l1.08,6.18,6.37.27v-13.54c-2.12-.52-4.28-.79-6.46-.81-5.31.33-10.21,2.95-13.44,7.17l-.27-.09-.89-6.18h-11.74l-.81,4.75,5.11,1.71c.89.27,1.16.9,1.16,1.88v30.48c0,1.35-.18,1.62-1.43,1.79l-4.48.54v4.93h23.74v-4.84l-8.25-.72c-1.34-.08-1.44-.35-1.44-1.79v-26.98c2.83-3.01,6.59-5,10.67-5.65"/><path id="Path_1598" d="m308.66,589.15c.28-2.84-1.79-5.38-4.63-5.66-.37-.04-.74-.03-1.11,0-3.14.03-5.67,2.59-5.64,5.74.03,3.14,2.59,5.67,5.74,5.64,3.14-.03,5.67-2.59,5.64-5.73"/><path id="Path_1599" d="m298.6,645.45l-5.92.54v4.93h22.71v-4.84l-5.74-.63c-1.34-.18-1.44-.36-1.44-1.79v-38.79h-13.62l-.8,4.75,5.11,1.71c.89.27,1.16.89,1.16,1.88v30.48c0,1.35-.17,1.7-1.43,1.79"/><path id="Path_1600" d="m357.34,645.45l-4.31.54v4.93h20.62v-4.84l-5.11-.63c-1.34-.18-1.43-.36-1.43-1.79v-23.3c0-9.77-3.86-16.41-14.17-16.41-6.05.29-11.86,2.49-16.58,6.28l-.27-.08-.72-5.29h-11.73l-.81,4.75,5.11,1.71c.9.27,1.16.89,1.16,1.88v30.48c0,1.35-.17,1.62-1.43,1.79l-4.49.54v4.93h20.53v-4.84l-5.02-.63c-1.35-.18-1.44-.36-1.44-1.79v-26.98c3.84-3.44,8.75-5.46,13.9-5.74,6.64,0,7.8,5.65,7.8,11.48v21.25c0,1.26-.45,1.7-1.62,1.79"/><path id="Path_1601" d="m418.46,625.36c0-15.51-7.53-21.42-18.47-21.42s-20.44,7.62-20.44,24.02c0,13.36,5.29,24.03,21.52,24.03,5.7.09,11.32-1.31,16.32-4.05l-2.6-6.1c-3.95,2.18-8.4,3.3-12.91,3.22-9.78,0-13.45-6.18-13.72-15.24h30.11c.09-1.52.19-3.32.19-4.48m-30.22-1.71c.71-9.95,5.74-13.17,11.74-13.17,5.47,0,10.13,2.95,10.31,13.17h-22.05Z"/><path id="Path_1602" d="m475.08,646.07l-7.8-.72c-1.35-.18-1.44-.35-1.44-1.79v-44.29l17.37,36.4h8.68l18.02-36.48v44.47c0,1.35-.18,1.71-1.44,1.79l-7.44.63v4.84h24.38v-4.84l-6.01-.72c-1.16-.18-1.43-.54-1.43-1.71v-50.37c0-1.35.09-1.53,1.43-1.71l6.01-.71v-4.85h-17.21l-20.44,42.58-19.73-42.58h-17.37v4.93l5.65.63c1.26.09,1.44.45,1.44,1.79v50.29c0,1.35-.19,1.62-1.44,1.79l-5.65.63v4.84h24.38l.02-4.85Z"/><path id="Path_1603" d="m556.61,610.39c2.06-.04,4.12.24,6.1.81.61.11,1.06.64,1.07,1.26l1.08,5.92,6,.27v-11.93c-4.29-1.88-8.94-2.83-13.63-2.77-13.62,0-23.49,7.44-23.49,24.47,0,14.16,6.54,23.58,21.87,23.58,5.35.12,10.64-1.18,15.33-3.77l-2.6-5.92c-3.52,1.93-7.46,2.94-11.48,2.95-8.68,0-14.62-4.84-14.62-17.37s6.37-17.49,14.35-17.49"/><path id="Path_1604" d="m619.37,650.91h21.87v-4.84l-4.05-.99c-1.08-.27-1.79-.45-2.15-1.52l-20.08-57.56h-10.42l-19.7,57.48c-.36,1.08-.8,1.34-2.24,1.71l-3.86.98v4.75h20.62v-4.84l-7.25-.8,4.75-14.17h25.01l4.84,14.17-7.35.8.02,4.82Zm-20.44-26.36l10.58-31.56,10.42,31.56h-21Z"/><path id="Path_1605" d="m682.13,644.82l.72,6.1h12.63v-4.84l-4.75-.63c-.99-.09-1.26-.54-1.26-1.89v-38.73h-13.36l-.72,4.83,4.48,1.16c1.35.27,1.44.54,1.44,1.97v24.75c-3.51,4.49-8.74,7.32-14.43,7.8-5.65,0-6.99-3.77-6.99-11.58v-28.95h-13.54l-.72,4.83,4.66,1.16c1.34.27,1.44.63,1.44,2.06v22.77c0,10.31,3.05,16.32,12.91,16.32,6.48-.16,12.65-2.76,17.3-7.27l.18.12Z"/><path id="Path_1606" d="m726.01,646.08l-5.38-.63c-1.34-.17-1.44-.36-1.44-1.79v-60.43h-13.9l-.81,4.75,5.38,1.7c.89.27,1.16.9,1.16,1.89v52.11c0,1.35-.18,1.71-1.43,1.79l-5.56.54v4.93h21.97v-4.86Z"/><path id="Path_1607" d="m752.54,603.94c-11.3,0-20.44,7.62-20.44,24.02,0,13.36,5.29,24.03,21.52,24.03,5.7.09,11.32-1.31,16.32-4.05l-2.61-6.1c-3.95,2.18-8.4,3.3-12.91,3.22-9.78,0-13.45-6.18-13.72-15.24h30.11c.09-1.52.19-3.32.19-4.48,0-15.51-7.53-21.42-18.47-21.42m-11.74,19.72c.72-9.95,5.74-13.17,11.74-13.17,5.47,0,10.13,2.95,10.31,13.17h-22.05Z"/><path id="Path_1608" d="m809.83,604.84l-.99,4.93,6.1.72-12.47,30.11-11.92-30.11,5.92-.72v-4.93h-18.56l-1.08,4.93,3.67.9c1.08.27,1.44.45,1.89,1.52l16.14,38.21-5.21,11.92c-.54,1.26-.9,1.79-1.97,1.89l-6.46.81v4.93h24.32v-4.84l-8.68-.9,21.79-52.44c.4-.89,1.26-1.48,2.24-1.53l3.05-.45v-4.93l-17.78-.02Z"/><path id="Path_1609" d="m111.71,749.32c0,.76-.52,1.42-1.26,1.61-4.04,1.37-8.29,2.01-12.55,1.89-13.99,0-22.58-9.33-22.58-26.81s9.15-26.9,23.22-26.9c3.88.04,7.72.7,11.39,1.97.89.27,1.07.81,1.16,1.62l1.53,8.51,6.09.36v-14.36c-6.04-3.39-12.89-5.06-19.81-4.84-21.52,0-32.19,14.16-32.19,33.62s8.78,33.53,30.69,33.53c7.47.36,14.89-1.28,21.52-4.75v-13.54h-5.74l-1.47,8.09Z"/><path id="Path_1610" d="m166.17,751.21v-23.74c0-12.37-4.31-15.96-17.03-15.96-7.08,0-17.3,1.26-17.3,12.28l7.71.81c.09-6.72,4.05-6.9,9.51-6.9,7.8,0,9.06,3.22,9.06,9.77v4.75l-12.11.98c-10.76.9-16.32,5.11-16.32,14.08-.67,6.14,3.76,11.65,9.9,12.32.91.1,1.83.09,2.74-.04,6.12-.07,11.96-2.59,16.21-6.99l.27.09.8,5.83h12.55v-4.84l-4.57-.63c-1.34-.17-1.44-.36-1.44-1.79m-8.07-4.93c-3.66,3.78-8.5,6.21-13.72,6.91-4.22,0-6.28-1.97-6.28-6.81s2.15-6.91,9.84-7.63l10.13-.89.02,8.41Z"/><path id="Path_1611" d="m198.33,752.83c-5.11,0-6.45-2.15-6.45-7.8v-26.45h13.9v-6.18h-13.18c-.71,0-.71-.36-.71-.9v-10.94h-5.29c-1.16,9.14-3.13,11.92-10.13,12.82v5.21h6.54c.71,0,.71.35.71.9v27.97c0,8.07,3.86,12.11,12.47,12.11,4.29-.13,8.52-1.07,12.46-2.78l-1.97-5.74c-2.65,1.1-5.48,1.7-8.34,1.79"/><path id="Path_1612" d="m221.86,753.01l-4.49.54v4.93h20.53v-4.84l-5.02-.63c-1.35-.18-1.44-.36-1.44-1.79v-26.98c3.98-3.41,8.94-5.45,14.17-5.82,6.37,0,7.53,5.29,7.53,11.92v20.88c0,1.26-.45,1.7-1.62,1.79l-4.31.54v4.93h20.62v-4.84l-5.11-.63c-1.34-.18-1.43-.36-1.43-1.79v-23.41c0-10.13-4.21-16.32-13.8-16.32-5.88.17-11.54,2.25-16.14,5.92v-26.63h-13.8l-.81,4.75,5.38,1.7c.9.27,1.16.9,1.16,1.89v52.11c0,1.35-.17,1.62-1.43,1.79"/><path id="Path_1613" d="m317.88,734.72c0-13.45-5.92-23.22-21.25-23.22s-22.49,9.68-22.49,23.74,6.01,24.32,21.61,24.32,22.14-9.78,22.14-24.84m-21.89,18.29c-8.87,0-13.44-5.74-13.44-17.66s5.11-17.03,13.9-17.03,13,5.21,13,16.94-4.75,17.75-13.45,17.75"/><path id="Path_1614" d="m339.45,751.21v-60.42h-13.9l-.81,4.75,5.38,1.7c.89.27,1.16.9,1.16,1.89v52.11c0,1.35-.18,1.71-1.43,1.79l-5.56.54v4.93h21.97v-4.84l-5.38-.63c-1.34-.18-1.44-.36-1.44-1.79"/><path id="Path_1615" d="m358.37,696.71c-.28,2.89,1.83,5.46,4.72,5.75.37.04.74.03,1.11,0,3.14-.07,5.63-2.68,5.56-5.82-.07-3.14-2.68-5.63-5.82-5.56-3.07.07-5.53,2.57-5.56,5.64"/><path id="Path_1616" d="m376.66,753.64l-5.74-.63c-1.34-.18-1.44-.36-1.44-1.8v-38.79h-13.62l-.81,4.75,5.11,1.7c.89.27,1.16.9,1.16,1.88v30.48c0,1.35-.18,1.71-1.44,1.8l-5.91.53v4.93h22.68v-4.85Z"/><path id="Path_1617" d="m417.11,749.87c-3.52,1.93-7.46,2.95-11.48,2.96-8.68,0-14.62-4.84-14.62-17.37s6.37-17.49,14.35-17.49c2.06-.04,4.12.24,6.1.81.61.11,1.05.64,1.07,1.26l1.08,5.92,6,.27v-11.92c-4.29-1.89-8.94-2.84-13.63-2.78-13.63,0-23.48,7.44-23.48,24.47,0,14.17,6.54,23.58,21.87,23.58,5.35.12,10.64-1.18,15.33-3.77l-2.59-5.94Z"/><path id="Path_1618" d="m503.34,754.8v-13.54h-5.76l-1.44,8.07c0,.76-.52,1.42-1.26,1.61-4.04,1.37-8.29,2.01-12.55,1.89-13.98,0-22.58-9.33-22.58-26.81s9.15-26.89,23.22-26.89c3.88.04,7.72.7,11.39,1.97.89.27,1.07.81,1.16,1.62l1.53,8.51,6.1.36v-14.38c-6.04-3.39-12.89-5.06-19.81-4.84-21.52,0-32.19,14.16-32.19,33.62s8.79,33.53,30.69,33.53c7.47.36,14.89-1.29,21.52-4.75"/><path id="Path_1619" d="m536.31,711.5c-15.33,0-22.5,9.68-22.5,23.74s6.01,24.32,21.61,24.32,22.14-9.78,22.14-24.84c0-13.45-5.92-23.22-21.25-23.22m-.63,41.51c-8.87,0-13.44-5.74-13.44-17.66s5.11-17.03,13.9-17.03,13,5.21,13,16.94-4.75,17.75-13.45,17.75"/><path id="Path_1620" d="m585.92,753.64l-5.38-.63c-1.34-.18-1.44-.36-1.44-1.8v-60.42h-13.9l-.81,4.75,5.38,1.7c.89.27,1.16.9,1.16,1.89v52.11c0,1.35-.18,1.71-1.44,1.8l-5.56.53v4.93h21.97v-4.86Z"/><path id="Path_1621" d="m608.98,751.21v-60.42h-13.9l-.81,4.75,5.38,1.7c.89.27,1.16.9,1.16,1.89v52.11c0,1.35-.18,1.71-1.43,1.79l-5.56.54v4.93h21.97v-4.84l-5.38-.63c-1.34-.18-1.44-.36-1.44-1.79"/><path id="Path_1622" d="m642.3,711.5c-11.3,0-20.44,7.62-20.44,24.02,0,13.36,5.29,24.03,21.52,24.03,5.7.09,11.32-1.31,16.32-4.05l-2.6-6.1c-3.95,2.18-8.4,3.3-12.91,3.22-9.78,0-13.45-6.18-13.72-15.24h30.11c.09-1.52.19-3.32.19-4.48,0-15.51-7.53-21.42-18.47-21.42m-11.75,19.72c.72-9.95,5.74-13.17,11.75-13.17,5.47,0,10.13,2.95,10.31,13.17h-22.06Z"/><path id="Path_1623" d="m689.82,711.49c-12.19,0-19.46,6.99-19.46,17.03-.31,5.17,2.29,10.08,6.73,12.74-1.62,2.15-3.47,4.39-4.93,6.46-1.13,1.41-1.81,3.13-1.97,4.93,0,2.35,1.65,4.37,3.95,4.84-3.18,2.44-5.17,6.13-5.47,10.13,0,6.82,5.37,11,20.88,11s23.22-5.56,23.22-14.43c0-10.58-7.27-11.38-23.4-12.28l-11-.63,4.05-7.8c2.46.79,5.04,1.16,7.62,1.08,10.49,0,18.64-5.92,18.64-16.5.07-3.41-1.11-6.73-3.31-9.33l8.42-.63v-5.74h-15.96c-2.61-.65-5.29-.95-7.98-.9m-9.15,47.42l14.43.81c5.82.54,9.32.9,9.32,5.11,0,6.81-9.14,7.53-13.9,7.53-8.78-.09-13.81-1.16-13.81-6.01.34-2.88,1.75-5.54,3.94-7.44m19.99-31.2c.19,5.43-4.05,9.99-9.49,10.19-.48.02-.97,0-1.45-.06-7.89,0-10.94-4.3-10.94-9.59-.29-5.41,3.87-10.03,9.27-10.31.65-.03,1.29,0,1.93.09,5.11-.73,9.85,2.81,10.58,7.92.08.58.11,1.17.09,1.76"/><path id="Path_1624" d="m739.82,711.5c-11.3,0-20.44,7.62-20.44,24.02,0,13.36,5.29,24.03,21.52,24.03,5.7.09,11.32-1.31,16.32-4.05l-2.6-6.1c-3.95,2.18-8.4,3.3-12.91,3.22-9.78,0-13.45-6.18-13.72-15.24h30.11c.09-1.52.19-3.32.19-4.48,0-15.51-7.53-21.42-18.47-21.42m-11.75,19.72c.71-9.95,5.74-13.17,11.75-13.17,5.47,0,10.13,2.95,10.31,13.17h-22.06Z"/><path id="Path_1625" d="m254,860.4h-.07l-13.64-39.44h-8.96v46.35h5.44v-40.08h.1l13.77,40.08h6.14l14.02-40.01h.06v40.01h5.57v-46.35h-8.81l-13.64,39.44Z"/><path id="Path_1626" d="m306.49,846.51h19.91v-5.12h-19.91v-15.3h21.19v-5.12h-27.08v46.35h27.91v-5.12h-22l-.02-15.68Z"/><path id="Path_1627" d="m363.16,820.96h-14.28v46.35h13.22c16.58,0,24.07-9.66,24.07-23.88s-6.92-22.47-22.99-22.47m-1.02,41.36h-7.36v-36.37h7.87c11,0,17.42,4.23,17.42,18.31,1.13,8.84-5.12,16.92-13.95,18.05-1.33.17-2.67.17-3.99.01"/><path id="Path_1628" d="m427.07,820.13c-14.15,0-21.77,10.24-21.77,24.01s6.47,23.95,20.81,23.95,21.38-9.8,21.38-24.84c0-12.87-6.4-23.11-20.43-23.11m-.64,42.77c-8.96,0-14.98-6.28-14.98-18.82s6.47-18.76,15.43-18.76,14.6,6.28,14.6,18.53c0,13.13-6.28,19.11-15.05,19.11"/><path id="Path_1629" d="m505.16,860.92h-.07l-10.24-39.95h-6.53l-10.24,39.44h-.06l-7.94-39.44h-6.15l10.11,46.35h7.3l10.11-38.09h.06l9.84,38.09h7.49l9.8-46.35h-5.89l-7.6,39.95Z"/><rect id="Rectangle_346" x="538.27" y="820.96" width="5.89" height="46.35"/><path id="Path_1630" d="m574.04,846.51h19.91v-5.12h-19.91v-15.3h21.19v-5.12h-27.08v46.35h27.91v-5.12h-22l-.02-15.68Z"/><path id="Path_1631" d="m471.6,499.93c69.63-17.87,127.21-66.7,156.23-132.47-37.06-32.42-118.69-65.93-151.41-65.85-20.76.05-33,13.72-34.16,39.08-.64,23.7,1.57,47.4,6.57,70.57,4.79,24.62,16.01,63.64,22.58,87.82.09.32.14.58.21.85m110.89-144.82c1.81-3.66,6.24-5.15,9.9-3.34,3.66,1.81,5.15,6.24,3.34,9.9-1.35,2.72-4.22,4.34-7.25,4.08-.96-.06-1.9-.32-2.76-.76-3.62-1.82-5.08-6.23-3.26-9.85,0-.01.01-.02.02-.03h0Zm-10.57,18.45c2.3-3.37,6.9-4.24,10.27-1.94,3.27,2.23,4.2,6.65,2.11,10.01-1.49,2.26-4.08,3.53-6.78,3.33-1.23-.1-2.43-.5-3.47-1.16-3.41-2.25-4.36-6.82-2.13-10.24m-12.64,17.16c2.62-3.13,7.27-3.55,10.41-.94,3.13,2.62,3.55,7.27.94,10.41-1.53,1.84-3.86,2.82-6.25,2.63-1.52-.11-2.96-.71-4.12-1.71-3.14-2.57-3.61-7.2-1.03-10.35.02-.02.04-.05.06-.07m-4.26,26.29c-1.52,1.46-3.59,2.2-5.69,2.03-1.8-.13-3.48-.93-4.72-2.24-2.83-2.91-2.77-7.56.14-10.4,0,0,.02-.02.02-.02v-.04c2.92-2.86,7.6-2.81,10.46.11,2.86,2.92,2.81,7.6-.11,10.46-.03.03-.07.07-.1.1m-7.65-81.31c1.19-2.45,4.14-3.47,6.59-2.28,2.45,1.19,3.47,4.14,2.28,6.59-.87,1.75-2.68,2.83-4.63,2.76-2.72-.1-4.85-2.38-4.75-5.1.02-.68.19-1.35.49-1.97m-8.11,14.54c1.47-2.28,4.5-2.96,6.8-1.52,2.29,1.44,2.98,4.46,1.55,6.75,0,.01-.02.03-.03.04-.92,1.48-2.57,2.35-4.31,2.28-.88-.04-1.74-.3-2.5-.76-2.28-1.47-2.96-4.5-1.52-6.8m-9.72,13.55c1.72-2.12,4.83-2.44,6.95-.72,2.1,1.68,2.43,4.75.75,6.85,0,0-.01.02-.02.03-.97,1.2-2.45,1.89-4,1.85-1.06-.02-2.08-.4-2.89-1.07-2.13-1.69-2.49-4.8-.8-6.93,0,0,0-.01.01-.02m-.9,56.55c3.2-2.52,7.84-1.98,10.36,1.22,2.52,3.2,1.98,7.84-1.22,10.36-.05.04-.11.09-.17.13-3.23,2.45-7.83,1.85-10.32-1.34-2.49-3.2-1.92-7.82,1.28-10.31.02-.02.05-.04.07-.05m-10.21-44.18c1.93-1.92,5.06-1.91,6.98.02,1.92,1.93,1.91,5.06-.02,6.98-.97.96-2.29,1.48-3.66,1.43-2.71-.07-4.85-2.32-4.78-5.03.03-1.28.57-2.5,1.49-3.4m2.76,58.7c2.1,3.5.97,8.04-2.52,10.14-1.31.79-2.84,1.15-4.37,1.04-4.07-.32-7.12-3.88-6.8-7.95.18-2.36,1.49-4.5,3.51-5.73,3.5-2.12,8.06-.99,10.18,2.51,0,0,0,0,0,0m-14.68-115.58c.99-1.79,3.23-2.44,5.02-1.45,1.72.95,2.4,3.09,1.54,4.86-.65,1.22-1.92,1.97-3.3,1.96-.6.02-1.2-.11-1.74-.39-1.79-.92-2.49-3.12-1.57-4.91.01-.02.02-.05.04-.07m6.37,68.78c1.71,2.11,1.39,5.2-.71,6.92-.01.01-.03.02-.04.03-.93.7-2.07,1.06-3.23,1.04-2.71-.07-4.86-2.33-4.79-5.04.07-2.71,2.33-4.86,5.04-4.79,1.46.04,2.83.72,3.73,1.87m-13.83-56.67c1.18-1.66,3.49-2.05,5.15-.86,1.66,1.18,2.05,3.49.86,5.15h0c-.68.98-1.81,1.55-3,1.53-2.02.02-3.67-1.59-3.69-3.61,0-.78.23-1.54.69-2.18m-1.48,73.84c-2.31,1.42-5.34.7-6.76-1.61s-.7-5.34,1.61-6.76c2.3-1.41,5.31-.71,6.74,1.58,1.41,2.32.7,5.35-1.59,6.8m-7.58-62.81c1.41-1.49,3.77-1.56,5.26-.15,1.43,1.42,1.5,3.71.15,5.21-.71.74-1.69,1.16-2.71,1.16-.94-.02-1.83-.39-2.51-1.04-1.49-1.37-1.59-3.69-.22-5.19,0,0,.02-.02.02-.02m2.25,99.93c3.68-1.71,8.05-.12,9.76,3.55.01.02.02.05.03.07,1.68,3.71.07,8.08-3.62,9.8-3.72,1.7-8.12.08-9.84-3.63-1.69-3.71-.06-8.08,3.64-9.78.01,0,.02-.01.03-.02m-12.7-90.22c1.6-1.29,3.94-1.05,5.24.55,1.29,1.6,1.05,3.94-.55,5.24h0c-1.59,1.29-3.92,1.05-5.21-.54-1.27-1.59-1.03-3.91.54-5.21m-1.82,52.81c2.44-1.18,5.38-.17,6.56,2.27,0,.01.01.03.02.04,1.16,2.46.13,5.39-2.32,6.58-.71.33-1.49.49-2.28.47-2.73-.11-4.85-2.4-4.74-5.13.07-1.81,1.13-3.44,2.76-4.24m-9.8-44.58c1.77-1.01,4.03-.39,5.04,1.38.97,1.7.45,3.86-1.19,4.93-.58.36-1.25.55-1.93.54-1.3,0-2.5-.67-3.2-1.77-1.04-1.75-.47-4.02,1.28-5.07m-11.18,13.64c-1.47,0-2.81-.87-3.4-2.22-.82-1.86.03-4.03,1.89-4.85s4.03.03,4.85,1.89h0c.81,1.88-.05,4.06-1.92,4.88-.45.2-.94.3-1.43.3m8.83,46.59c-.57.22-1.17.31-1.78.29-2.73-.06-4.89-2.32-4.83-5.05.06-2.73,2.32-4.89,5.05-4.83,2.73.06,4.89,2.32,4.83,5.05-.04,2.04-1.34,3.85-3.27,4.54m2.07,38.89c-1.35-3.85.68-8.07,4.53-9.42,3.85-1.35,8.07.68,9.42,4.53.03.09.06.17.09.26,1.28,3.85-.81,8.02-4.66,9.3-.02,0-.04.01-.06.02-.91.32-1.88.45-2.85.38-2.98-.23-5.52-2.22-6.48-5.04"/><path id="Path_1632" d="m385.09,335.38c-2.32-18.6-10.75-32.3-25.92-33.28-25.27-1.64-117.78,35.9-155.75,72.59,30.01,62.22,85.94,108.04,152.85,125.22.07-.29.12-.53.21-.86,8.03-29.15,20.59-73.19,25.3-103.09,3.93-19.94,5.04-40.33,3.28-60.58m-30.91,26.58c1.04-1.75,3.3-2.32,5.05-1.27,1.75,1.04,2.32,3.3,1.27,5.05-.67,1.12-1.87,1.8-3.17,1.79-.66,0-1.3-.16-1.87-.49v-.05c-1.74-1.02-2.32-3.26-1.3-5,0-.01.01-.02.02-.03m-22.36-19.2c1.5-1.36,3.83-1.25,5.19.25,1.32,1.45,1.26,3.68-.12,5.07-.67.66-1.57,1.04-2.51,1.04-1.02-.01-2-.43-2.71-1.16-1.4-1.47-1.34-3.8.14-5.2,0,0,0,0,.01-.01m-.68,58.02c1.38-2.35,4.4-3.13,6.75-1.75,2.35,1.38,3.13,4.4,1.75,6.75-.88,1.5-2.49,2.42-4.22,2.43-.88,0-1.75-.24-2.51-.69-2.34-1.38-3.12-4.4-1.74-6.74,0,0,0,0,0,0m-15.77-82.49c1.74-1.06,4.02-.5,5.07,1.25s.5,4.02-1.25,5.07c-.11.07-.23.13-.35.19-.55.28-1.16.43-1.77.44-2.04,0-3.69-1.64-3.7-3.68,0-1.37.75-2.63,1.96-3.27m-22.58,48.12c2.1-1.74,5.21-1.48,6.99.58h-.05c1.77,2.02,1.57,5.1-.45,6.87-.91.8-2.08,1.22-3.29,1.21-1.45.01-2.82-.63-3.75-1.74-1.77-2.06-1.53-5.17.53-6.94h0m-53.59,2.98c-4.05-.08-7.26-3.43-7.18-7.48s3.43-7.26,7.48-7.18c4.05.08,7.26,3.43,7.18,7.48-.06,2.67-1.56,5.1-3.92,6.34-1.09.58-2.32.87-3.56.84m15.7,17.72c-1.28.85-2.78,1.29-4.31,1.27-4.06-.1-7.27-3.47-7.17-7.53.1-4.06,3.47-7.27,7.53-7.17,4.06.1,7.27,3.47,7.17,7.53-.06,2.37-1.26,4.57-3.22,5.91m14.18,17.05c-1.38,1.17-3.14,1.81-4.95,1.79-2.12-.02-4.12-.97-5.48-2.59-2.65-3.1-2.29-7.76.8-10.41,3.1-2.65,7.76-2.29,10.41.8,2.65,3.09,2.29,7.74-.79,10.4m5.38-66.83c2.42-1.24,5.39-.29,6.63,2.13,1.24,2.42.29,5.39-2.13,6.63-.68.35-1.42.53-2.18.54-1.84,0-3.53-1.03-4.39-2.66-1.27-2.4-.35-5.37,2.05-6.64,0,0,.01,0,.02-.01m10.55,82.22c-2.71,2.98-7.32,3.21-10.3.5-.04-.04-.08-.07-.12-.11h-.01c-2.95-2.82-3.06-7.5-.24-10.45,2.76-2.89,7.33-3.06,10.3-.39,2.99,2.75,3.18,7.4.43,10.38-.01.01-.02.03-.04.04m3.35-58.96c-.82.53-1.78.82-2.76.83-1.64.01-3.18-.8-4.09-2.17-1.53-2.26-.93-5.32,1.33-6.85,2.26-1.53,5.32-.93,6.85,1.33,1.53,2.26.93,5.32-1.33,6.85m14.24,72.48c-2.44,3.28-7.08,3.95-10.36,1.51-3.28-2.44-3.95-7.08-1.51-10.36,2.44-3.27,7.06-3.95,10.34-1.52,3.28,2.44,3.96,7.08,1.53,10.37m1.67-53.76c1.88-1.97,5-2.06,6.99-.2,1.97,1.86,2.06,4.97.2,6.94h0c-1.82,1.99-4.91,2.12-6.9.3-.02-.02-.03-.03-.05-.05-1.97-1.88-2.08-4.98-.25-6.99m17.33,65.17c-1.33,2.33-3.82,3.75-6.51,3.71-1.26-.02-2.49-.36-3.58-1-3.52-2.05-4.73-6.55-2.71-10.09,2.04-3.53,6.55-4.75,10.09-2.71,3.53,2.04,4.75,6.55,2.71,10.09m3.41-47.74c-.92,1.25-2.39,1.98-3.94,1.97-1.06,0-2.1-.35-2.95-.98-2.18-1.63-2.62-4.72-.99-6.9,1.63-2.18,4.72-2.62,6.9-.99,2.18,1.63,2.62,4.72.99,6.9,0,0,0,0,0,0m-.05-58.95c-1.19.01-2.31-.55-3-1.52-1.2-1.66-.82-3.98.84-5.17s3.98-.82,5.17.84h0v.05c1.19,1.63.82,3.92-.81,5.1,0,0-.02.01-.03.02-.63.46-1.39.7-2.17.68m16.79,115.9c-1.2,2.73-3.92,4.47-6.91,4.43-.97-.02-1.92-.23-2.8-.63-3.74-1.63-5.46-5.98-3.83-9.72,1.63-3.74,5.98-5.46,9.72-3.83s5.46,5.98,3.83,9.72c0,.01-.01.02-.02.04m1.16-95.31c-1.51-1.4-1.6-3.75-.2-5.25,1.25-1.35,3.31-1.58,4.83-.54v.05c1.59,1.27,1.85,3.59.58,5.18,0,0,0,0,0,0-1.3,1.57-3.6,1.82-5.21.58m3.3,50.83c1.1-2.47,4-3.59,6.47-2.49,2.47,1.1,3.59,4,2.49,6.47-.79,1.77-2.54,2.91-4.48,2.91-.68.01-1.35-.12-1.97-.39h-.05c-2.47-1.11-3.58-4.01-2.47-6.49,0,0,0,0,0-.01m16.61,51.34c-1.2,3.9-5.34,6.09-9.23,4.89-3.9-1.2-6.09-5.34-4.89-9.23,1.2-3.9,5.34-6.09,9.23-4.89,3.89,1.22,6.07,5.34,4.89,9.23m8.68-41.79c-.63,2.05-2.53,3.45-4.68,3.44-.5,0-1-.06-1.48-.2-2.6-.8-4.06-3.56-3.26-6.16.8-2.6,3.56-4.06,6.16-3.26,2.6.8,4.06,3.56,3.26,6.16,0,0,0,.01,0,.02m2.41-46.7c-.59,1.36-1.92,2.25-3.4,2.26-.51,0-1.02-.12-1.48-.35-1.86-.8-2.72-2.96-1.92-4.82,0,0,0,0,0,0,.77-1.85,2.9-2.72,4.75-1.95.02.01.05.02.07.03,1.87.79,2.75,2.95,1.97,4.82"/><path id="Path_1633" d="m420.64,422.52c2.41-4.82,3.67-10.14,3.68-15.53,1.82-36.63,3.64-73.26,5.26-109.9-.41-3.85,2.38-7.3,6.23-7.7.03,0,.06,0,.1,0,5.43-.96,10.88-1.74,16.32-2.69,10.83-1.1,21.49-3.44,31.78-6.98,3.07-1.3,6.34-2.85,6.32-6.72s-3.31-5.41-6.37-6.72c-7.25-2.74-14.81-4.59-22.51-5.52-8.82-1.47-17.64-2.89-26.45-4.42-2.81-.17-5.05-2.4-5.21-5.21-1.48-13.93-2.93-27.87-4.52-41.78-.19-7.31-1.41-14.56-3.62-21.53-1.46-3.55-3.44-6.66-7.29-6.95-2.47,0-4.77,1.29-6.07,3.39-1.94,2.67-3.18,5.79-3.58,9.06-2.1,18.05-4.17,36.11-6.13,54.19-.81,7.49-1.52,8.41-9.03,9.63-10.88,1.78-21.77,3.53-32.63,5.4-4.72.71-9.32,2.09-13.66,4.08-2.72,1.31-5.49,2.86-5.61,6.37-.12,3.6,2.76,5.1,5.47,6.37,2.56,1.2,5.22,2.16,7.96,2.86,12.89,3.22,26.12,4.57,39.16,6.95,6.65,1.2,7.94,2.67,8.22,8.48,1.56,33.81,3.04,67.63,4.74,101.42-.5,8.06.92,16.13,4.14,23.54,1.16,3.68,5.09,5.72,8.77,4.56,2.16-.68,3.85-2.37,4.55-4.53m-3.58-84.56c-.45,1.31-1.61,2.26-2.99,2.44-1.52-.16-2.81-1.2-3.28-2.65-.92-2.2-1.44-4.56-1.52-6.95-.67-15.19-1.42-30.39-1.92-45.58-.12-3.84-1.41-5.58-5.36-6.05-7.24-.86-14.44-2.12-21.62-3.47-2.17-.41-5.52-.46-5.52-3.42,0-2.72,3.25-2.72,5.31-3.11,7.47-1.4,14.96-2.72,22.49-3.71,3.43-.45,4.46-2.18,4.73-5.26.58-6.68,1.09-13.38,2.06-20.01.45-3.15.09-8.01,4.63-7.96,4.19.04,3.88,4.63,4.3,7.73.93,6.95,1.74,13.9,2.32,20.89-.16,2.34,1.6,4.37,3.94,4.54.12,0,.23.01.35,0,7.53,1.03,15.05,2.23,22.5,3.67,2.11.41,5.6.27,5.52,3.39-.08,2.94-3.47,2.89-5.63,3.29-7.03,1.31-14.09,2.49-21.18,3.36-4.05.5-5.4,2.19-5.54,6.33-.54,15.79-1.48,31.57-2.37,47.34-.16,1.79-.58,3.54-1.24,5.21"/><path id="Path_1634" d="m262.38,322.88c3.07-1.53,4.57-5.06,3.55-8.34-8.13-27.26-8.31-56.28-.52-83.64.97-3.26-.54-6.74-3.57-8.26-22.83-10.85-44.15-24.61-63.43-40.95-24.37,58.33-24.31,124.01.18,182.29,19.4-16.41,40.85-30.22,63.81-41.11"/><path id="Path_1635" d="m563.42,236.31c5.47,22.33,5.72,45.62.72,68.07-.3,1.31-.76,3.11-1.22,4.86-.87,3.28.77,6.71,3.86,8.11,3.42,1.57,6.83,3.2,10.2,4.86,19.67,9.35,38.23,20.89,55.31,34.4,20.63-53.94,20.69-113.59.18-167.58-20.03,15.72-41.94,28.88-65.22,39.18-3.07,1.42-4.68,4.83-3.83,8.11"/><path id="Path_1636" d="m366.59,43.97l2.32,8.37c5.74,19.36,10.47,39.01,14.17,58.86.16.87.58,2.94,1,5.1.76,3.65,4.25,6.07,7.94,5.5,14.43-2.05,29.07-2.05,43.5,0,3.84.6,7.43-2.03,8.03-5.87,0-.01,0-.03,0-.04.46-3.29.94-6.65,1.26-8.27,3.35-16.65,7.53-33.12,12.54-49.35,1.42-5.14,2.75-9.97,3.94-14.32.1-.38.17-.69.25-1.01-31.39-6.49-63.79-6.49-95.18,0,.08.32.14.61.24,1"/></g></g></g></svg>