<?xml version="1.0" encoding="UTF-8"?><svg id="Layer_2" xmlns="http://www.w3.org/2000/svg" xmlns:xlink="http://www.w3.org/1999/xlink" viewBox="0 0 986.81 356.67"><defs><clipPath id="clippath"><rect width="986.81" height="356.67" style="fill:none;"/></clipPath></defs><g id="Layer_1-2"><g id="Group_780"><g style="clip-path:url(#clippath);"><g id="Group_779"><path id="Path_1637" d="m208.02,32.32c-.08.32-.15.63-.25.99-4.69,17.25-12.7,45.11-16.12,62.65-3.57,16.54-5.14,33.44-4.69,50.35.84,18.1,9.57,27.85,24.39,27.88,22.05.05,80.9-23.13,108.16-47.1-20.64-47.04-61.75-81.98-111.5-94.79" style="fill:#20845a;"/><path id="Path_1638" d="m16.46,121.94c27,26.21,93.2,53.1,111.26,51.93,10.82-.7,16.86-10.48,18.49-23.75,1.79-14.58-.09-28.91-2.34-43.21-3.37-21.34-12.32-52.76-18.06-73.56-.1-.38-.17-.68-.24-1.01-47.81,12.31-87.74,45.1-109.11,89.6" style="fill:#f6ad32;"/><path id="Path_1639" d="m60.47,42.86l-5.4-7.41,2.56-1.87,5.68,7.77c1.93,2.12,1.77,5.4-.35,7.33-.35.32-.73.58-1.15.79-1.93,2.01-5.12,2.08-7.14.15-.41-.39-.75-.85-1-1.35l-5.64-7.7,2.58-1.89,5.38,7.35c1.39,1.89,2.55,2.49,4.34,1.19,1.69-1.24,1.6-2.4.15-4.38" style="fill:#fff;"/><path id="Path_1640" d="m79.97,37.51l-10.3-6.34,5.31,9.21-2.52,1.45-7.52-13.04,3.29-1.89,10.23,6.42-5.34-9.24,2.5-1.44,7.53,13.04-3.18,1.83Z" style="fill:#fff;"/><rect id="Rectangle_348" x="86.27" y="17.48" width="3.17" height="15.05" transform="translate(-2.3 39.72) rotate(-25.16)" style="fill:#fff;"/><path id="Path_1641" d="m102.01,27.11l-4.39-11.56-4.1,1.55-.95-2.52,11.14-4.23.96,2.52-4.06,1.54,4.38,11.56-2.98,1.14Z" style="fill:#fff;"/><path id="Path_1642" d="m117.02,19.22l6.41-1.77.72,2.61-9.46,2.6-4.01-14.51,9.1-2.52.71,2.58-6.05,1.67.95,3.4,5.68-1.58.7,2.52-5.68,1.58.93,3.41Z" style="fill:#fff;"/><path id="Path_1643" d="m134.81,15.26c3.39-.57,4.26-2.64,3.73-5.72-.63-3.7-2.24-4.59-5.16-4.1l-1.77.3,1.66,9.78,1.54-.26Zm-4.24,3.33l-2.52-14.87,5.16-.87c3.46-1.08,7.14.84,8.22,4.3.17.54.27,1.11.29,1.68,1.08,3.72-1.07,7.61-4.79,8.68-.51.15-1.03.24-1.55.26l-4.81.81Z" style="fill:#fff;"/><rect id="Rectangle_349" x="156.3" y=".26" width="3.17" height="15.07" transform="translate(-.19 6.48) rotate(-2.35)" style="fill:#fff;"/><path id="Path_1644" d="m175.65,15.42l-5.31-10.87-.44,10.63-2.9-.13.62-15.06,3.79.16,5.2,10.91.44-10.67,2.89.12-.63,15.06-3.66-.15Z" style="fill:#fff;"/><path id="Path_1645" d="m209.01,20.4l-2.9-.6,2.4-11.57-.09-.02-5.84,10.86-2.8-.58-.92-12.28h-.08l-2.41,11.59-2.84-.59,3.07-14.75,4.64.95.84,11.42.08.02,5.32-10.14,4.61.95-3.08,14.76Z" style="fill:#fff;"/><path id="Path_1646" d="m219.74,20.83l6.31,2.06-.84,2.57-9.34-3.04,4.7-14.33,8.98,2.93-.84,2.55-5.96-1.94-1.1,3.37,5.62,1.83-.82,2.5-5.61-1.83-1.09,3.34Z" style="fill:#fff;"/><path id="Path_1647" d="m239.01,22.2c1.36.59,2.7.56,3.38-.99.58-1.31,0-2.16-1.58-2.84l-1.6-.7-1.69,3.88,1.49.65Zm2.9,10.25l-3.12-1.36-.41-6.42-1.87-.81-2.3,5.23-2.89-1.26,6.06-13.78,5.32,2.33c3.39,1.49,3.71,3.83,2.82,5.86-.62,1.73-2.26,2.89-4.1,2.91l.49,7.31Z" style="fill:#fff;"/><path id="Path_1648" d="m249.99,28.27c1.41-3.59,5.46-5.37,9.05-3.96.39.15.76.34,1.12.56,2.68,1.1,3.95,4.16,2.85,6.84-.11.26-.24.52-.39.76l-2.66-1.21c.89-1.96.52-3.15-1.14-4.1-2.12-1.2-4.15-.53-5.9,2.59-1.82,3.23-1.39,5.11.66,6.27,1.33.94,3.16.62,4.1-.7.01-.02.03-.04.04-.06l2.25,1.85c-1.83,2.41-5.25,2.94-7.73,1.2-4.31-2.44-4.55-5.96-2.27-10.02" style="fill:#fff;"/><path id="Path_1649" d="m268.24,48.18l-2.62-1.83,3.24-4.62,1.19-10.68,2.84,1.99-1.02,7.16.09.06,6.29-3.47,2.63,1.84-9.38,4.9-3.26,4.64Z" style="fill:#fff;"/><path id="Path_1650" d="m201.87,95h0c-1.81-.66-2.75-2.66-2.11-4.48.64-1.82,2.64-2.77,4.46-2.13s2.77,2.64,2.13,4.46c-.49,1.38-1.78,2.31-3.25,2.33-.42,0-.84-.06-1.24-.18m10.97,4.58c-1.74-.85-2.47-2.95-1.61-4.69.85-1.74,2.95-2.47,4.69-1.61h0c1.75.85,2.48,2.95,1.63,4.7-.59,1.18-1.77,1.94-3.08,1.97-.56,0-1.12-.12-1.62-.38m10.41,5.83v-.03c-1.63-1.02-2.13-3.18-1.11-4.81,0,0,0,0,0,0,1.03-1.65,3.21-2.16,4.87-1.12,1.65,1.03,2.16,3.21,1.12,4.87s-3.21,2.16-4.87,1.12c0,0-.01,0-.02-.01m9.66,6.9h.03c-1.51-1.21-1.75-3.4-.54-4.91,1.21-1.51,3.4-1.75,4.91-.54l.03-.03c1.5,1.22,1.73,3.43.51,4.94h0c-.63.83-1.6,1.33-2.64,1.36-.84.02-1.65-.26-2.31-.79m8.88,7.98c-1.38-1.36-1.4-3.59-.04-4.97,1.36-1.38,3.59-1.4,4.97-.04,1.38,1.36,1.4,3.59.04,4.97,0,0-.01.01-.02.02-.63.65-1.49,1.03-2.4,1.04-.96.01-1.88-.35-2.56-1.03m7.89,8.87c-1.19-1.53-.92-3.74.61-4.93,1.53-1.19,3.74-.92,4.93.61,1.18,1.52.92,3.7-.58,4.9-.62.46-1.36.72-2.13.75-1.1.02-2.15-.48-2.84-1.34m6.88,9.71h0c-1.03-1.64-.53-3.81,1.11-4.84,1.64-1.03,3.81-.53,4.84,1.11,1.03,1.64.53,3.81-1.11,4.84,0,0,0,0,0,0-.53.34-1.15.53-1.78.54-1.24.03-2.41-.59-3.06-1.65m5.74,10.41c-.84-1.75-.11-3.86,1.65-4.7s3.86-.11,4.7,1.65c.84,1.75.11,3.85-1.64,4.7-.45.21-.93.33-1.43.35-1.39.04-2.68-.74-3.28-1.99" style="fill:#fff;"/><path id="Path_1651" d="m67.06,149.31c-1.73-.85-2.44-2.95-1.59-4.68,0-.01,0-.02.02-.03.87-1.73,2.97-2.43,4.71-1.58,1.74.86,2.45,2.98,1.59,4.72-.86,1.74-2.98,2.45-4.72,1.59" style="fill:#fff;"/><path id="Path_1652" d="m72.78,138.43c-1.63-1.05-2.11-3.22-1.07-4.85,0,0,0,0,0-.01,1.07-1.61,3.22-2.08,4.86-1.06,1.63,1.04,2.1,3.21,1.05,4.83,0,.01-.01.02-.02.03h.04c-.64.99-1.74,1.6-2.92,1.61-.69.03-1.37-.17-1.95-.55" style="fill:#fff;"/><path id="Path_1653" d="m79.65,128.24c-1.51-1.23-1.73-3.45-.5-4.96,1.23-1.5,3.43-1.73,4.94-.52,1.5,1.24,1.74,3.45.54,4.98v-.04c-1.21,1.52-3.43,1.77-4.95.56-.01,0-.02-.02-.03-.02" style="fill:#fff;"/><path id="Path_1654" d="m87.66,118.9c-1.36-1.39-1.35-3.62.03-4.99,1.36-1.35,3.55-1.35,4.91,0,.02.02.03.04.05.05,1.36,1.37,1.35,3.58-.01,4.94-.64.64-1.51,1-2.41,1.02-.96.03-1.89-.34-2.55-1.03" style="fill:#fff;"/><path id="Path_1655" d="m96.6,110.46c-1.2-1.53-.93-3.73.59-4.93,1.53-1.2,3.73-.93,4.93.59,1.2,1.52.93,3.73-.59,4.93-.58.47-1.31.74-2.06.75-1.12.04-2.19-.46-2.88-1.34" style="fill:#fff;"/><path id="Path_1656" d="m106.45,103.1c-1.02-1.65-.51-3.81,1.13-4.83,0,0,.01,0,.02-.01,1.66-1.03,3.83-.52,4.86,1.14s.52,3.83-1.14,4.86c-1.66,1.03-3.83.52-4.86-1.14,0,0,0-.01-.01-.02" style="fill:#fff;"/><path id="Path_1657" d="m117.05,96.88c-.83-1.75-.09-3.84,1.65-4.67,0,0,.02,0,.03-.01h-.03c1.74-.88,3.86-.19,4.74,1.55.88,1.74.19,3.86-1.55,4.74-.05.03-.1.05-.16.07-.45.22-.94.34-1.43.35-1.39.04-2.67-.76-3.25-2.03" style="fill:#fff;"/><path id="Path_1658" d="m128.29,91.91c-.62-1.83.35-3.82,2.18-4.44,1.83-.62,3.82.35,4.44,2.18.62,1.83-.35,3.81-2.17,4.44-.34.12-.69.19-1.05.21-1.53.03-2.9-.93-3.39-2.38" style="fill:#fff;"/><path id="Path_1659" d="m319.39,262.16c-26.44-23.14-84.71-47.04-108.04-46.98-14.83.03-23.55,9.78-24.39,27.88-.46,16.91,1.11,33.81,4.68,50.35,3.42,17.56,11.42,45.4,16.12,62.65.06.22.1.4.15.6,49.68-12.75,90.77-47.58,111.48-94.51" style="fill:#0081a5;"/><path id="Path_1660" d="m127.71,215.53c-18.03-1.17-84.03,25.63-111.12,51.79,21.42,44.39,61.32,77.08,109.06,89.34.05-.21.09-.38.15-.61,5.73-20.79,14.67-52.22,18.05-73.55,2.26-14.31,4.14-28.64,2.34-43.21-1.63-13.27-7.67-23.05-18.49-23.75" style="fill:#cd6319;"/><path id="Path_1661" d="m119.42,63.1c-.88-2.77.66-5.73,3.44-6.61,2.77-.88,5.73.66,6.61,3.44.88,2.77-.66,5.73-3.44,6.61,0,0-.02,0-.03,0v.03c-.46.14-.95.21-1.43.21-2.34.06-4.44-1.44-5.14-3.68m-14.59,6.12c-1.24-2.69-.06-5.87,2.63-7.11,2.69-1.24,5.87-.06,7.11,2.63s.06,5.87-2.63,7.11c-.68.31-1.41.48-2.15.49-2.13.06-4.09-1.18-4.96-3.12m-13.78,7.72c-1.47-2.52-.61-5.76,1.91-7.22s5.76-.61,7.22,1.91.61,5.76-1.91,7.22c0,0,0,0-.01,0-.77.43-1.64.66-2.52.68-1.92.06-3.72-.94-4.69-2.6m-12.8,9.24c-1.73-2.33-1.24-5.62,1.09-7.35,2.33-1.73,5.62-1.24,7.35,1.09,1.73,2.33,1.24,5.62-1.09,7.35-.87.65-1.92,1.01-3.01,1.03-1.7.04-3.32-.75-4.34-2.12m-11.71,10.63c-2-2.11-1.9-5.44.21-7.44,2.11-2,5.44-1.9,7.44.21,2,2.11,1.9,5.44-.21,7.44,0,0-.01,0-.02.01-2.12,1.97-5.42,1.87-7.42-.22m-10.49,11.86c-2.27-1.88-2.59-5.25-.71-7.52,1.88-2.27,5.25-2.59,7.52-.71,2.27,1.88,2.59,5.25.71,7.52-.98,1.19-2.43,1.89-3.98,1.93-1.29.04-2.55-.4-3.54-1.22m-9.07,12.93c-2.38-1.63-2.98-4.89-1.35-7.27,1.63-2.38,4.89-2.98,7.27-1.35,2.38,1.63,2.98,4.89,1.35,7.27-.96,1.39-2.53,2.24-4.22,2.27-1.09.02-2.15-.3-3.04-.92m-7.53,13.91c-2.53-1.35-3.48-4.49-2.13-7.02,1.35-2.53,4.49-3.48,7.02-2.13,2.53,1.35,3.48,4.49,2.13,7.02-.89,1.66-2.61,2.71-4.49,2.74-.88.03-1.75-.19-2.52-.61" style="fill:#fff;"/><path id="Path_1662" d="m133.37,124.86c-.46-1.38.29-2.87,1.67-3.33,1.22-.41,2.56.13,3.16,1.27.56,1.34-.04,2.88-1.37,3.47-.34.14-.69.21-1.06.21-1.06-.01-2.01-.65-2.43-1.61m62.9,1.58c-1.34-.57-1.97-2.11-1.4-3.46.57-1.34,2.11-1.97,3.46-1.4,1.34.57,1.97,2.11,1.4,3.46,0,0,0,.02-.01.03-.42.96-1.38,1.58-2.43,1.58-.35,0-.7-.07-1.02-.21m-72.1,3.52c-.77-1.22-.4-2.84.82-3.61,1.22-.77,2.84-.4,3.61.82.02.04.05.08.07.12.75,1.22.37,2.82-.85,3.57,0,0-.02.01-.03.02v.03c-.42.23-.89.36-1.38.35-.93,0-1.78-.5-2.25-1.3m81.1,1.16c-1.24-.77-1.62-2.4-.85-3.64.77-1.24,2.4-1.62,3.64-.85,1.23.76,1.62,2.38.87,3.62-.49.79-1.35,1.27-2.28,1.26-.48-.01-.95-.15-1.37-.39m-89.54,5.17c-.91-1.13-.74-2.78.39-3.69,1.09-.97,2.75-.88,3.72.21s.88,2.75-.21,3.72c-.07.06-.14.12-.21.17-1.14.89-2.78.7-3.69-.42m97.86.7h0c-1.14-.92-1.31-2.59-.39-3.72s2.59-1.31,3.72-.39c1.14.92,1.31,2.59.39,3.72,0,0,0,0,0,0-.5.61-1.25.97-2.04.98-.61,0-1.2-.22-1.68-.6m-105.37,6.69c-1.04-1.01-1.09-2.66-.1-3.73,1-1.05,2.66-1.09,3.71-.09,0,0,.01.01.02.02,1.04,1.01,1.09,2.66.1,3.72-.51.51-1.21.8-1.93.8-.67,0-1.31-.26-1.79-.73m112.83.25c-.99-1.05-.94-2.71.11-3.7.01,0,.02-.02.03-.03,1.06-.99,2.72-.94,3.72.1.99,1.05.94,2.71-.12,3.7,0,0-.02.02-.03.02-.48.47-1.12.74-1.79.74-.73,0-1.43-.3-1.93-.84m-119.29,8.08c-1.17-.85-1.43-2.5-.58-3.67.85-1.17,2.5-1.43,3.67-.58,1.18.85,1.45,2.49.6,3.68,0,0,0,0,0,.01v-.03c-.49.7-1.29,1.12-2.14,1.12-.56,0-1.1-.19-1.55-.53m125.76-.21h0c-.84-1.18-.57-2.83.61-3.67,1.18-.84,2.83-.57,3.67.61h0c.84,1.19.57,2.83-.6,3.69-.46.3-1,.46-1.55.46-.85,0-1.65-.4-2.14-1.09m-131.03,9.34c-1.28-.69-1.76-2.29-1.07-3.57s2.29-1.76,3.57-1.07c1.28.69,1.76,2.29,1.07,3.57-.46.85-1.34,1.38-2.31,1.39-.44,0-.87-.11-1.26-.32m136.37-.7c-.69-1.25-.23-2.83,1.03-3.52.02-.01.04-.02.06-.03,1.28-.67,2.86-.18,3.53,1.1,0,0,0,.02.01.03.71,1.26.27,2.86-.98,3.57-1.26.71-2.86.27-3.57-.98-.03-.05-.06-.11-.08-.16" style="fill:#fff;"/><path id="Path_1663" d="m37.51,260.75c-1.36-2.57-.39-5.76,2.18-7.12,2.57-1.36,5.76-.39,7.12,2.18,1.36,2.56.39,5.75-2.17,7.12-.78.42-1.66.62-2.54.6-1.92-.02-3.68-1.08-4.6-2.77m8.48,14.04c-1.64-2.4-1.03-5.68,1.37-7.32,2.4-1.64,5.68-1.03,7.32,1.37,1.64,2.4,1.03,5.68-1.37,7.32,0,0,0,0,0,0-.91.6-1.98.92-3.07.9-1.7-.02-3.29-.87-4.25-2.28m10,12.98h0c-1.89-2.21-1.63-5.53.58-7.42,2.21-1.89,5.53-1.63,7.42.58,1.88,2.2,1.63,5.51-.56,7.41-.99.83-2.24,1.29-3.53,1.28-1.51-.02-2.94-.69-3.91-1.85m11.39,11.79h-.03c-2.13-1.98-2.26-5.32-.28-7.45,1.98-2.13,5.32-2.26,7.45-.28,2.13,1.96,2.28,5.28.32,7.41-.01.01-.03.03-.04.04-1.94,2.12-5.23,2.28-7.35.34-.02-.02-.04-.04-.07-.06m12.6,10.45c-2.35-1.73-2.85-5.04-1.12-7.39,1.73-2.35,5.04-2.85,7.39-1.12,2.35,1.73,2.85,5.04,1.12,7.39-1.01,1.38-2.63,2.18-4.34,2.15-1.1-.02-2.16-.38-3.04-1.03m13.72,8.98c-2.51-1.46-3.37-4.67-1.93-7.19,1.46-2.52,4.68-3.38,7.2-1.92s3.38,4.68,1.92,7.2c-.95,1.65-2.73,2.66-4.63,2.63-.9-.01-1.78-.26-2.55-.71m14.65,7.35c-2.67-1.15-3.9-4.26-2.75-6.93,1.15-2.67,4.26-3.9,6.93-2.75h0c2.68,1.15,3.91,4.26,2.76,6.94-.85,1.97-2.8,3.23-4.94,3.19-.69-.01-1.37-.17-2-.45m15.38,5.68c-2.77-.86-4.32-3.81-3.46-6.59.86-2.77,3.81-4.32,6.59-3.46,2.77.86,4.32,3.81,3.46,6.59-.69,2.23-2.77,3.74-5.11,3.7-.5,0-1-.09-1.48-.24" style="fill:#fff;"/><path id="Path_1664" d="m95.38,230.61c-.68-1.29-.19-2.89,1.1-3.57s2.89-.19,3.57,1.1c.68,1.28.19,2.87-1.08,3.56-.39.2-.82.31-1.26.32-.97,0-1.87-.54-2.32-1.41m5.76,9.25c-.85-1.18-.59-2.84.6-3.69,1.18-.85,2.84-.59,3.69.6v.04c.85,1.16.59,2.79-.57,3.64,0,0-.02.01-.03.02-.45.33-.99.5-1.55.49-.85.01-1.65-.39-2.14-1.09m6.96,8.39c-1.01-1.05-.98-2.72.07-3.72s2.72-.98,3.72.07c1.01,1.05.98,2.71-.07,3.72-.48.47-1.12.74-1.79.74-.73,0-1.42-.29-1.93-.81m8.01,7.38c-1.11-.96-1.23-2.63-.28-3.74.91-1.05,2.47-1.22,3.58-.4v.03c1.13.9,1.32,2.56.42,3.69-.92,1.13-2.57,1.31-3.73.42m8.96,6.22v-.03c-1.22-.75-1.61-2.35-.86-3.57.75-1.22,2.35-1.61,3.57-.86,1.22.75,1.61,2.35.86,3.57-.48.78-1.33,1.25-2.24,1.24-.47,0-.93-.12-1.33-.35m9.66,4.91c-1.33-.57-1.94-2.11-1.37-3.44,0,0,0,0,0,0,.55-1.32,2.07-1.94,3.39-1.39.02,0,.04.02.06.02,1.34.56,1.97,2.1,1.41,3.44-.42.97-1.37,1.6-2.43,1.61-.37,0-.73-.08-1.05-.25" style="fill:#fff;"/><path id="Path_1665" d="m166.88,242.85c.98-.13,1.81-.8,2.13-1.74.47-1.18.77-2.43.88-3.7.63-11.25,1.3-22.51,1.69-33.77.1-2.95,1.07-4.16,3.95-4.51,5.05-.63,10.09-1.46,15.11-2.4,1.55-.29,3.96-.25,4.02-2.35.06-2.22-2.43-2.13-3.94-2.41-5.32-1.03-10.68-1.89-16.05-2.62-1.67.02-3.05-1.31-3.07-2.99,0-.09,0-.17,0-.26-.43-4.98-1-9.95-1.66-14.9-.3-2.21-.07-5.49-3.06-5.51-3.24-.03-2.99,3.43-3.31,5.68-.69,4.73-1.08,9.51-1.47,14.28-.19,2.21-.92,3.44-3.37,3.76-5.36.7-10.72,1.65-16.04,2.64-1.47.27-3.79.28-3.79,2.21,0,2.11,2.38,2.15,3.94,2.44,5.12.95,10.26,1.85,15.42,2.47,2.81.34,3.73,1.58,3.82,4.32.36,10.84.9,21.68,1.38,32.52.06,1.7.42,3.39,1.08,4.96.34,1.04,1.26,1.78,2.34,1.89m.21-113.85c2.75.22,4.16,2.44,5.2,4.97,1.58,4.97,2.45,10.14,2.58,15.36,1.13,9.93,2.17,19.87,3.22,29.81.11,2.01,1.72,3.61,3.73,3.73,6.29,1.07,12.58,2.1,18.87,3.15,5.49.66,10.88,1.98,16.05,3.94,2.18.95,4.52,2.05,4.54,4.8s-2.32,3.87-4.5,4.8c-7.25,3.07-15.04,3.66-22.67,4.98-3.88.68-7.77,1.24-11.65,1.92-2.75.25-4.77,2.68-4.52,5.43,0,.02,0,.05,0,.07-1.15,26.14-2.46,52.27-3.75,78.41,0,3.85-.9,7.64-2.62,11.08-.84,2.62-3.64,4.07-6.27,3.23-1.54-.49-2.75-1.71-3.24-3.25-2.95-5.25-2.66-11.11-2.95-16.8-1.21-24.11-2.27-48.24-3.38-72.36-.19-4.14-1.12-5.19-5.86-6.05-9.31-1.67-18.75-2.64-27.94-4.94-1.95-.5-3.85-1.19-5.68-2.04-1.93-.89-3.99-1.96-3.9-4.53.08-2.49,2.06-3.6,4-4.53,3.1-1.42,6.38-2.4,9.75-2.91,7.75-1.33,15.52-2.58,23.28-3.85,5.36-.87,5.87-1.53,6.44-6.87,1.39-12.89,2.88-25.78,4.37-38.66.29-2.34,1.17-4.56,2.56-6.47.93-1.5,2.57-2.41,4.33-2.41" style="fill:#fff;"/><path id="Path_1666" d="m209.09,67.19c-2.77-.88-4.31-3.83-3.44-6.61.88-2.77,3.83-4.31,6.61-3.44.05.01.09.03.14.04,2.76.91,4.26,3.88,3.35,6.64-.67,2.02-2.49,3.45-4.61,3.6-.7.06-1.4-.02-2.06-.24m14.13,5.61c-2.63-1.23-3.77-4.36-2.56-7,1.29-2.62,4.46-3.69,7.08-2.39,2.51,1.24,3.62,4.23,2.52,6.81-.82,1.73-2.5,2.89-4.42,3.04-.9.06-1.79-.1-2.61-.47m13.43,7.16h0c-2.47-1.51-3.26-4.74-1.75-7.21,1.51-2.47,4.74-3.26,7.21-1.75s3.26,4.74,1.75,7.21c-.88,1.45-2.41,2.38-4.09,2.5-1.09.08-2.18-.18-3.12-.75m12.55,8.61h0c-2.29-1.77-2.71-5.07-.94-7.36,1.77-2.29,5.07-2.71,7.36-.94l.03-.03c2.35,1.73,2.85,5.03,1.12,7.37s-5.03,2.85-7.37,1.12c-.07-.05-.14-.1-.2-.16m11.49,9.99c-2.05-2.07-2.03-5.41.04-7.46,2-1.99,5.22-2.04,7.29-.13v.03c2.09,2.02,2.14,5.34.12,7.43-.9.93-2.11,1.49-3.4,1.59-1.5.11-2.97-.42-4.05-1.46m10.31,11.18c-1.9-2.2-1.66-5.53.54-7.43,2.2-1.9,5.53-1.66,7.43.54.05.06.11.13.16.19,1.83,2.25,1.51,5.55-.71,7.41-.85.68-1.89,1.09-2.98,1.18-1.7.13-3.36-.58-4.44-1.89m8.99,12.26c-1.6-2.43-.92-5.7,1.51-7.29,2.43-1.6,5.7-.92,7.29,1.51,1.6,2.43.92,5.7-1.51,7.29-.01,0-.03.02-.04.03-.73.5-1.59.79-2.47.85-1.92.15-3.76-.76-4.8-2.38m7.55,13.16c-1.28-2.61-.2-5.76,2.41-7.04,2.61-1.28,5.76-.2,7.04,2.41,1.27,2.6.2,5.74-2.39,7.03-.62.3-1.29.48-1.97.53-2.14.17-4.16-1-5.08-2.93" style="fill:#fff;"/><path id="Path_1667" d="m289.38,260.4c-2.58-1.3-3.62-4.44-2.33-7.02,0,0,0-.02.01-.03h-.03c1.29-2.61,4.45-3.68,7.06-2.39,2.61,1.29,3.68,4.45,2.39,7.06-.96,1.94-3,3.09-5.15,2.92-.68-.05-1.35-.23-1.97-.54m-8.37,13.42c-2.43-1.6-3.11-4.87-1.52-7.31,1.59-2.44,4.86-3.13,7.3-1.54,2.44,1.59,3.13,4.86,1.54,7.3-1.06,1.61-2.91,2.52-4.84,2.38-.88-.07-1.72-.36-2.47-.83m-9.85,12.34c-2.24-1.86-2.55-5.18-.69-7.42,1.86-2.24,5.18-2.55,7.42-.69,2.22,1.87,2.53,5.17.69,7.42-1.09,1.33-2.77,2.03-4.48,1.89-1.08-.08-2.11-.51-2.94-1.21m-11.16,11.19c-2.02-2.08-1.97-5.4.1-7.42,0,0,0,0,.01-.01v-.03c2.1-2.02,5.44-1.95,7.46.15,2.02,2.1,1.95,5.44-.15,7.46-1.08,1.04-2.56,1.57-4.06,1.45-1.28-.09-2.49-.66-3.37-1.6m-12.36,9.89c-1.79-2.3-1.38-5.61.92-7.4,2.3-1.79,5.61-1.38,7.4.92s1.38,5.61-.92,7.4c-.01,0-.02.02-.04.03-2.3,1.75-5.58,1.33-7.37-.95m-13.37,8.41c-1.5-2.49-.7-5.72,1.78-7.22s5.72-.7,7.22,1.78c1.5,2.49.7,5.72-1.78,7.22-.94.57-2.03.83-3.12.74-1.7-.13-3.22-1.07-4.1-2.52m-14.28,6.9c-1.22-2.65-.05-5.79,2.6-7.01,2.65-1.22,5.79-.05,7.01,2.6,1.21,2.64.06,5.77-2.58,7-2.66,1.22-5.79.06-7.02-2.59m-14.92,5.25c-.98-2.74.45-5.76,3.2-6.74s5.76.45,6.74,3.2c.03.08.05.16.08.24.91,2.75-.57,5.72-3.32,6.63-.01,0-.03,0-.04.01-.65.23-1.34.32-2.03.27-2.12-.17-3.94-1.58-4.62-3.6" style="fill:#fff;"/><path id="Path_1668" d="m132.09,301.04h0c-1.9-.55-2.99-2.54-2.44-4.43.55-1.9,2.54-2.99,4.43-2.44,1.9.55,2.99,2.54,2.44,4.43-.44,1.51-1.81,2.55-3.38,2.58-.36,0-.71-.04-1.05-.14" style="fill:#fff;"/><path id="Path_1669" d="m120.25,296.53h-.03c-1.82-.77-2.67-2.87-1.91-4.69s2.87-2.67,4.69-1.91c1.82.77,2.67,2.87,1.91,4.69-.55,1.31-1.82,2.17-3.24,2.19-.48,0-.96-.09-1.41-.28" style="fill:#fff;"/><path id="Path_1670" d="m108.97,290.74c-1.65-.99-2.2-3.13-1.21-4.78.99-1.65,3.13-2.2,4.78-1.21,1.65.99,2.2,3.13,1.21,4.78-.63,1.05-1.76,1.7-2.99,1.7-.63,0-1.25-.17-1.79-.49" style="fill:#fff;"/><path id="Path_1671" d="m98.39,283.71h0c-1.55-1.16-1.87-3.37-.7-4.92,1.16-1.55,3.37-1.87,4.92-.7,1.55,1.16,1.87,3.37.7,4.92-.66.89-1.7,1.41-2.81,1.41-.76,0-1.5-.25-2.11-.7" style="fill:#fff;"/><path id="Path_1672" d="m88.7,275.55h0c-1.49-1.25-1.68-3.47-.44-4.95s3.47-1.68,4.95-.44c.1.09.2.18.3.28,1.41,1.33,1.47,3.54.15,4.95h0c-1.3,1.42-3.51,1.51-4.92.21-.01,0-.02-.02-.03-.03" style="fill:#fff;"/><path id="Path_1673" d="m79.95,266.35c-1.26-1.47-1.09-3.69.38-4.95,0,0,0,0,0,0,1.5-1.24,3.72-1.05,4.99.42h-.03c1.27,1.44,1.13,3.63-.31,4.9-.65.57-1.49.88-2.36.87-1.03.01-2.01-.44-2.67-1.23" style="fill:#fff;"/><path id="Path_1674" d="m72.3,256.27c-1.09-1.61-.66-3.8.95-4.88,1.61-1.09,3.8-.66,4.88.95s.66,3.8-.95,4.88c0,0,0,0,0,0-.59.38-1.27.59-1.97.59-1.17.01-2.27-.57-2.92-1.54" style="fill:#fff;"/><path id="Path_1675" d="m65.79,245.37c-.87-1.71-.19-3.8,1.51-4.67,1.71-.87,3.8-.19,4.67,1.51.87,1.71.19,3.8-1.51,4.67-.48.24-1,.37-1.54.38-1.31,0-2.52-.73-3.13-1.89" style="fill:#fff;"/><path id="Path_1676" d="m263.61,244.17c-1.73-.86-2.45-2.95-1.61-4.69.85-1.75,2.96-2.48,4.71-1.63,1.75.85,2.48,2.96,1.63,4.71-.62,1.24-1.91,2.01-3.29,1.97-.5-.02-.98-.14-1.43-.36m-6.33,10.53c-1.64-1.04-2.12-3.21-1.08-4.85s3.21-2.12,4.85-1.08c1.63,1.02,2.13,3.18,1.11,4.81,0,.01-.01.02-.02.03-.65,1.06-1.83,1.68-3.07,1.63-.63-.03-1.24-.22-1.78-.55m-7.46,9.76c-1.53-1.19-1.81-3.39-.62-4.93s3.39-1.81,4.93-.62c.04.03.08.06.11.09,1.5,1.2,1.74,3.38.54,4.88,0,0-.01.02-.02.02-.69.86-1.74,1.34-2.84,1.32-.76-.01-1.5-.28-2.08-.77m-8.52,8.88c-1.36-1.39-1.34-3.62.04-4.99,1.38-1.37,3.61-1.35,4.97.03,1.37,1.38,1.35,3.61-.03,4.97-.69.68-1.63,1.05-2.6,1.01-.9-.03-1.75-.39-2.39-1.03m-9.41,7.89c-1.2-1.52-.94-3.72.58-4.92s3.72-.94,4.92.58c1.19,1.51.94,3.7-.56,4.9-.66.5-1.48.76-2.31.74-1.03-.03-1.99-.5-2.63-1.31m-10.31,6.74c-1.03-1.65-.52-3.83,1.14-4.86,1.65-1.03,3.83-.52,4.86,1.14,1.01,1.66.5,3.81-1.14,4.85-1.66.98-3.8.49-4.85-1.13m-10.94,5.61c-.9-1.71-.24-3.83,1.47-4.73s3.83-.24,4.73,1.47c.04.07.07.15.11.22.83,1.75.09,3.85-1.66,4.69-.5.23-1.05.35-1.61.34-1.3-.04-2.47-.81-3.03-1.99m-11.52,4.29c-.62-1.83.36-3.82,2.19-4.44,1.83-.62,3.82.36,4.44,2.19.62,1.82-.34,3.79-2.16,4.43-.4.15-.83.22-1.26.21-1.46-.05-2.73-1-3.2-2.38" style="fill:#fff;"/><path id="Path_1677" d="m194.88,265.21c-.58-1.33.03-2.88,1.36-3.46,1.33-.58,2.88.03,3.46,1.36.57,1.34-.04,2.88-1.37,3.47-.32.14-.67.21-1.02.21-1.05,0-2-.62-2.43-1.58" style="fill:#fff;"/><path id="Path_1678" d="m204.37,260.69c-.74-1.25-.34-2.87.91-3.61,1.23-.73,2.83-.35,3.58.87.77,1.22.4,2.83-.82,3.6,0,0-.02.01-.03.02-.41.26-.89.39-1.38.39-.93,0-1.79-.48-2.28-1.26" style="fill:#fff;"/><path id="Path_1679" d="m213.19,254.93c-.92-1.13-.75-2.8.39-3.72,1.13-.92,2.8-.75,3.72.39.92,1.13.75,2.8-.38,3.72-1.13.92-2.8.76-3.72-.37,0,0,0,0,0-.01" style="fill:#fff;"/><path id="Path_1680" d="m221.17,248.01c-1.07-.98-1.14-2.64-.16-3.7,0,0,.01-.01.02-.02,1.01-1.06,2.69-1.11,3.76-.1,1.03,1.01,1.08,2.66.11,3.73-.5.53-1.2.84-1.93.84-.67-.02-1.31-.28-1.79-.74" style="fill:#fff;"/><path id="Path_1681" d="m228.12,240.1c-1.19-.84-1.48-2.5-.63-3.69,0,0,0,0,0,0,.88-1.16,2.54-1.38,3.69-.49,1.1.84,1.36,2.39.59,3.55-.49.7-1.29,1.11-2.14,1.09-.54,0-1.07-.15-1.51-.46" style="fill:#fff;"/><path id="Path_1682" d="m233.92,231.33c-1.28-.65-1.78-2.22-1.13-3.49,0-.02.02-.04.03-.05.67-1.29,2.26-1.8,3.55-1.12,1.29.67,1.8,2.26,1.12,3.55-.46.87-1.37,1.41-2.35,1.4-.43.01-.85-.08-1.23-.28" style="fill:#fff;"/><path id="Path_1683" d="m56.75,193.96c0-9.88,1.37-19.72,4.08-29.22.69-2.32-.38-4.81-2.55-5.9-16.29-7.74-31.51-17.56-45.27-29.21-17.39,41.62-17.34,88.47.13,130.05,13.84-11.71,29.14-21.57,45.52-29.33,2.18-1.1,3.25-3.62,2.52-5.95-2.95-9.88-4.45-20.14-4.45-30.45" style="fill:#fff;"/><path id="Path_1684" d="m333.64,194.49c.01-20.37-3.7-40.58-10.94-59.62-14.29,11.21-29.93,20.6-46.54,27.95-2.18,1.01-3.33,3.44-2.73,5.77,3.91,15.93,4.09,32.55.53,48.56-.21.95-.54,2.21-.87,3.47-.62,2.34.55,4.79,2.75,5.79,2.44,1.13,4.87,2.28,7.28,3.47,14.04,6.67,27.27,14.91,39.46,24.55,7.33-19.13,11.08-39.44,11.07-59.93" style="fill:#fff;"/><path id="Path_1685" d="m166.82,27.18c-11.42,0-22.8,1.16-33.98,3.47.05.23.1.44.17.71l1.65,5.97c4.09,13.82,7.47,27.84,10.11,42.01.12.63.4,2.09.71,3.64.54,2.61,3.04,4.34,5.68,3.92,10.29-1.46,20.74-1.46,31.03,0,2.74.43,5.3-1.44,5.73-4.18,0-.01,0-.02,0-.04.32-2.34.67-4.73.9-5.9,2.39-11.88,5.37-23.62,8.93-35.2,1.01-3.67,1.96-7.11,2.81-10.21.07-.27.12-.49.18-.72-11.16-2.31-22.53-3.47-33.92-3.47" style="fill:#fff;"/><path id="Path_1686" d="m433.61,132.93c-4.73,2.47-10.03,3.65-15.35,3.39-15.6,0-21.87-9.85-21.87-23.93s7.61-23.97,22.96-23.97c4.94-.15,9.83,1.05,14.13,3.47v10.2l-4.34-.26-1.09-6.07c-.06-.58-.19-.96-.83-1.15-2.62-.91-5.36-1.38-8.13-1.41-10.04,0-16.56,6.66-16.56,19.19s6.14,19.13,16.12,19.13c3.04.09,6.07-.37,8.95-1.35.53-.13.89-.61.9-1.15l1.03-5.76h4.1v9.67Z" style="fill:#fff;"/><path id="Path_1687" d="m461.28,120.84l-7.23.63c-5.5.51-7.03,2.11-7.03,5.44s1.47,4.86,4.48,4.86c3.72-.49,7.17-2.23,9.78-4.93v-6Zm1.09,14.71l-.57-4.16-.19-.06c-3.03,3.15-7.2,4.95-11.58,4.99-4.36.6-8.39-2.44-8.99-6.8-.09-.65-.1-1.31-.03-1.96,0-6.4,3.97-9.4,11.64-10.05l8.64-.7v-3.38c0-4.67-.89-6.97-6.46-6.97-3.91,0-6.72.13-6.78,4.92l-5.49-.58c0-7.87,7.3-8.76,12.34-8.76,9.08,0,12.15,2.56,12.15,11.38v16.95c0,1.02.07,1.15,1.02,1.28l3.26.44v3.45h-8.96Z" style="fill:#fff;"/><path id="Path_1688" d="m497.01,134.34c-2.81,1.22-5.83,1.89-8.89,1.98-6.14,0-8.89-2.88-8.89-8.64v-19.95c0-.39,0-.63-.51-.63h-4.67v-3.72c4.99-.63,6.39-2.62,7.23-9.15h3.79v7.8c0,.38,0,.63.51.63h9.41v4.42h-9.94v18.87c0,4.03.95,5.56,4.6,5.56,2.05-.06,4.06-.49,5.95-1.28l1.41,4.1Z" style="fill:#fff;"/><path id="Path_1689" d="m524.22,135.55v-3.52l3.07-.38c.83-.07,1.15-.39,1.15-1.28v-14.9c0-4.73-.83-8.52-5.36-8.52-3.72.27-7.26,1.72-10.09,4.16v19.24c0,1.02.07,1.15,1.03,1.28l3.58.44v3.45h-14.65v-3.5l3.2-.38c.9-.13,1.02-.32,1.02-1.28v-37.16c0-.7-.19-1.15-.83-1.35l-3.88-1.21.58-3.39h9.85v19c3.28-2.62,7.32-4.1,11.51-4.22,6.84,0,9.85,4.42,9.85,11.64v16.69c0,1.02.06,1.15,1.02,1.28l3.65.44v3.45h-14.69Z" style="fill:#fff;"/><path id="Path_1690" d="m565.05,116.11c-.13-7.29-3.45-9.4-7.35-9.4-4.29,0-7.87,2.3-8.38,9.4h15.73Zm5.05,17.35c-3.57,1.96-7.58,2.95-11.65,2.88-11.57,0-15.35-7.61-15.35-17.14,0-11.71,6.53-17.14,14.59-17.14s13.18,4.22,13.18,15.29c0,.83-.07,2.12-.13,3.2h-21.49c.19,6.46,2.81,10.88,9.78,10.88,3.22.05,6.39-.74,9.21-2.3l1.87,4.35Z" style="fill:#fff;"/><path id="Path_1691" d="m576.71,135.55v-3.52l3.2-.38c.9-.13,1.02-.32,1.02-1.28v-21.75c0-.7-.19-1.15-.83-1.34l-3.65-1.21.58-3.39h8.37l.63,4.42.19.07c2.3-3.02,5.8-4.88,9.59-5.12,1.55.01,3.1.21,4.61.58v9.66l-4.54-.19-.77-4.42c-.06-.51-.19-.63-.77-.63-2.91.46-5.59,1.88-7.61,4.03v19.23c0,1.03.07,1.22,1.03,1.28l5.89.51v3.45h-16.94Z" style="fill:#fff;"/><path id="Path_1692" d="m612.49,95.58c-2.24.06-4.11-1.71-4.17-3.95-.06-2.24,1.71-4.11,3.95-4.17.08,0,.15,0,.23,0,2.24-.06,4.11,1.71,4.17,3.95.06,2.24-1.71,4.11-3.95,4.17-.08,0-.15,0-.23,0m-7.29,39.97v-3.51l4.22-.38c.9-.07,1.02-.32,1.02-1.28v-21.75c0-.7-.19-1.15-.83-1.34l-3.65-1.21.58-3.39h9.72v27.71c0,1.02.07,1.15,1.03,1.28l4.1.44v3.45l-16.19-.02Z" style="fill:#fff;"/><path id="Path_1693" d="m648.25,135.55v-3.52l3.07-.38c.83-.07,1.15-.39,1.15-1.28v-15.16c0-4.16-.83-8.2-5.56-8.2-3.68.2-7.18,1.64-9.92,4.1v19.24c0,1.02.06,1.15,1.03,1.28l3.58.44v3.45h-14.65v-3.5l3.2-.38c.9-.13,1.02-.32,1.02-1.28v-21.75c0-.7-.19-1.15-.83-1.34l-3.65-1.21.58-3.39h8.38l.51,3.79.19.06c3.37-2.7,7.52-4.27,11.83-4.48,7.35,0,10.09,4.73,10.09,11.71v16.63c0,1.02.06,1.15,1.02,1.28l3.65.44v3.45h-14.71Z" style="fill:#fff;"/><path id="Path_1694" d="m689.09,116.11c-.13-7.29-3.47-9.4-7.35-9.4-4.29,0-7.89,2.3-8.38,9.4h15.73Zm5.05,17.35c-3.56,1.95-7.58,2.95-11.64,2.88-11.58,0-15.35-7.61-15.35-17.14,0-11.71,6.53-17.14,14.59-17.14s13.18,4.22,13.18,15.29c0,.83-.07,2.12-.13,3.2h-21.49c.19,6.46,2.81,10.88,9.78,10.88,3.22.05,6.39-.74,9.21-2.3l1.86,4.35Z" style="fill:#fff;"/><path id="Path_1695" d="m753.88,135.55v-3.45l5.31-.44c.9-.07,1.03-.32,1.03-1.28v-31.73l-12.86,26.03h-6.2l-12.41-25.97v31.6c0,1.03.06,1.15,1.03,1.28l5.56.51v3.45h-17.4v-3.45l4.03-.44c.9-.13,1.03-.32,1.03-1.28v-35.88c0-.95-.13-1.21-1.03-1.28l-4.03-.45v-3.51h12.41l14.07,30.38,14.58-30.38h12.28v3.47l-4.29.51c-.95.13-1.02.25-1.02,1.21v35.96c0,.83.19,1.09,1.02,1.21l4.29.51v3.45l-17.39-.03Z" style="fill:#fff;"/><path id="Path_1696" d="m803.71,133.64c-3.34,1.85-7.12,2.78-10.94,2.69-10.94,0-15.61-6.72-15.61-16.82,0-12.15,7.03-17.46,16.76-17.46,3.34-.04,6.66.63,9.72,1.98v8.52l-4.28-.19-.77-4.22c-.02-.44-.33-.81-.77-.9-1.41-.41-2.88-.6-4.35-.58-5.68,0-10.24,3.33-10.24,12.47s4.22,12.41,10.43,12.41c2.87,0,5.69-.73,8.2-2.11l1.84,4.21Z" style="fill:#fff;"/><path id="Path_1697" d="m831.23,94.23l-7.55,22.52h14.96l-7.42-22.52Zm7.03,41.32v-3.45l5.25-.57-3.47-10.09h-17.84l-3.39,10.09,5.18.57v3.45h-14.71v-3.39l2.75-.7c1.02-.26,1.34-.44,1.6-1.21l14.07-41.01h7.42l14.33,41.07c.26.77.77.9,1.54,1.09l2.88.71v3.45h-15.59Z" style="fill:#fff;"/><path id="Path_1698" d="m883.55,135.55l-.51-4.35-.13-.06c-3.32,3.22-7.72,5.07-12.34,5.18-7.04,0-9.21-4.29-9.21-11.65v-16.24c0-1.02-.06-1.26-1.02-1.47l-3.33-.83.51-3.45h9.66v20.66c0,5.56.95,8.25,4.99,8.25,4.06-.34,7.79-2.35,10.3-5.56v-17.66c0-1.03-.06-1.21-1.03-1.41l-3.2-.83.52-3.45h9.53v27.63c0,.95.19,1.28.9,1.35l3.39.44v3.45h-9.02Z" style="fill:#fff;"/><path id="Path_1699" d="m898.68,135.55v-3.52l3.97-.38c.9-.07,1.02-.32,1.02-1.28v-37.16c0-.7-.19-1.15-.83-1.35l-3.84-1.21.58-3.39h9.91v43.1c0,1.02.07,1.15,1.03,1.28l3.84.44v3.45h-15.67Z" style="fill:#fff;"/><path id="Path_1700" d="m940.61,116.11c-.13-7.29-3.47-9.4-7.35-9.4-4.29,0-7.87,2.3-8.38,9.4h15.73Zm5.05,17.35c-3.56,1.95-7.58,2.95-11.64,2.88-11.58,0-15.35-7.61-15.35-17.14,0-11.71,6.53-17.14,14.59-17.14s13.18,4.22,13.18,15.29c0,.83-.07,2.12-.13,3.2h-21.49c.19,6.46,2.81,10.88,9.78,10.88,3.22.05,6.39-.74,9.21-2.3l1.87,4.35Z" style="fill:#fff;"/><path id="Path_1701" d="m956.36,149.12v-3.52l4.61-.58c.77-.07,1.02-.45,1.41-1.35l3.71-8.52-11.51-27.25c-.32-.76-.58-.89-1.35-1.09l-2.62-.63.77-3.52h13.25v3.52l-4.22.51,8.52,21.49,8.89-21.49-4.35-.51.71-3.52h12.66v3.52l-2.18.32c-.7.03-1.32.45-1.6,1.09l-15.56,37.43,6.2.63v3.47h-17.34Z" style="fill:#fff;"/><path id="Path_1702" d="m428.58,289.94h-3.97v-28.55h-.04l-10.01,28.55h-4.38l-9.82-28.6h-.09v28.6h-3.88v-33.07h6.39l9.73,28.14h.05l9.72-28.14h6.31v33.07Z" style="fill:#fff;"/><path id="Path_1703" d="m450,286.29h15.71v3.66h-19.92v-33.07h19.32v3.65h-15.12v10.91h14.19v3.65h-14.19v11.2Z" style="fill:#fff;"/><path id="Path_1704" d="m489.7,286.38c8.63,0,12.79-4.8,12.79-12.89,0-10.05-4.57-13.06-12.42-13.06h-5.62v25.94h5.25Zm-9.46,3.56v-33.07h10.19c11.47,0,16.4,6.17,16.4,16.03s-5.34,17.03-17.18,17.03h-9.41Z" style="fill:#fff;"/><path id="Path_1705" d="m546.3,273.19c0-8.72-4.1-13.2-10.41-13.2s-11.01,4.57-11.01,13.38,4.29,13.43,10.69,13.43,10.72-4.25,10.72-13.61m-25.81.23c0-9.82,5.43-17.13,15.53-17.13s14.57,7.31,14.57,16.49c0,10.72-5.16,17.72-15.26,17.72s-14.84-7.17-14.84-17.08" style="fill:#fff;"/><path id="Path_1706" d="m589.04,289.94l-7.03-27.18h-.04l-7.22,27.18h-5.21l-7.22-33.07h4.38l5.68,28.14h.04l7.31-28.14h4.66l7.31,28.5h.05l5.43-28.5h4.2l-7.01,33.07h-5.34Z" style="fill:#fff;"/><rect id="Rectangle_350" x="615.36" y="256.87" width="4.2" height="33.07" style="fill:#fff;"/><path id="Path_1707" d="m640.87,286.29h15.71v3.66h-19.91v-33.07h19.32v3.65h-15.12v10.91h14.19v3.65h-14.19v11.2Z" style="fill:#fff;"/><path id="Path_1708" d="m396.95,237.24l-.56.68h.04l.55-.7-.03.03Z" style="fill:#fff;"/><path id="Path_1709" d="m433.61,209.67c-4.73,2.47-10.03,3.65-15.35,3.39-15.61,0-21.87-9.85-21.87-23.93s7.61-23.97,22.96-23.97c4.94-.15,9.83,1.05,14.13,3.47v10.24l-4.34-.26-1.09-6.07c-.07-.58-.19-.96-.83-1.15-2.62-.91-5.36-1.38-8.13-1.41-10.04,0-16.56,6.66-16.56,19.19s6.14,19.13,16.12,19.13c3.04.09,6.07-.37,8.95-1.35.53-.13.89-.61.9-1.15l1.03-5.76h4.1v9.63Z" style="fill:#fff;"/><path id="Path_1710" d="m461.6,197.58l-7.23.63c-5.5.51-7.03,2.11-7.03,5.44s1.47,4.86,4.48,4.86c3.72-.49,7.17-2.23,9.78-4.93v-6Zm1.09,14.71l-.57-4.16-.19-.06c-3.03,3.15-7.2,4.95-11.58,4.99-4.36.6-8.39-2.44-8.99-6.8-.09-.65-.1-1.31-.03-1.96,0-6.4,3.97-9.4,11.64-10.05l8.64-.7v-3.39c0-4.67-.89-6.97-6.46-6.97-3.91,0-6.72.13-6.78,4.92l-5.5-.58c0-7.87,7.3-8.76,12.34-8.76,9.08,0,12.15,2.56,12.15,11.38v16.95c0,1.02.07,1.15,1.02,1.28l3.26.44v3.47l-8.96-.02Z" style="fill:#fff;"/><path id="Path_1711" d="m497.65,211.08c-2.81,1.22-5.83,1.89-8.89,1.98-6.14,0-8.89-2.88-8.89-8.64v-19.95c0-.39,0-.63-.51-.63h-4.66v-3.72c4.99-.63,6.39-2.62,7.23-9.15h3.79v7.8c0,.38,0,.63.51.63h9.41v4.42h-9.92v18.87c0,4.03.95,5.56,4.6,5.56,2.05-.06,4.06-.49,5.95-1.28l1.38,4.1Z" style="fill:#fff;"/><path id="Path_1712" d="m525.17,212.29v-3.52l3.07-.38c.83-.07,1.15-.39,1.15-1.28v-14.9c0-4.73-.83-8.52-5.36-8.52-3.72.27-7.26,1.73-10.09,4.16v19.24c0,1.02.06,1.15,1.03,1.28l3.58.44v3.47h-14.65v-3.51l3.2-.38c.9-.13,1.02-.32,1.02-1.28v-37.16c0-.7-.19-1.15-.83-1.35l-3.84-1.21.58-3.39h9.85v19c3.28-2.62,7.32-4.1,11.51-4.22,6.84,0,9.85,4.42,9.85,11.64v16.69c0,1.02.06,1.15,1.02,1.28l3.65.44v3.47l-14.73-.02Z" style="fill:#fff;"/><path id="Path_1713" d="m569.57,195.73c0-8.38-3.07-12.09-9.28-12.09s-9.91,3.71-9.91,12.15,3.26,12.6,9.59,12.6,9.6-3.9,9.6-12.66m-25.2,0c0-10.04,5.12-16.95,16.05-16.95s15.16,6.97,15.16,16.57c0,10.74-4.86,17.72-15.8,17.72s-15.41-7.17-15.41-17.35" style="fill:#fff;"/><path id="Path_1714" d="m580.16,212.29v-3.52l3.97-.38c.9-.07,1.02-.32,1.02-1.28v-37.16c0-.7-.19-1.15-.83-1.35l-3.84-1.21.58-3.39h9.91v43.11c0,1.02.07,1.15,1.03,1.28l3.84.44v3.47l-15.67-.02Z" style="fill:#fff;"/><path id="Path_1715" d="m608.62,172.31c-2.24.06-4.11-1.71-4.17-3.95-.06-2.24,1.71-4.11,3.95-4.17.08,0,.15,0,.23,0,2.24-.06,4.11,1.71,4.17,3.95.06,2.24-1.71,4.11-3.95,4.17-.08,0-.15,0-.23,0m-7.29,39.97v-3.51l4.22-.38c.9-.07,1.02-.32,1.02-1.28v-21.75c0-.7-.19-1.15-.83-1.34l-3.65-1.21.58-3.39h9.72v27.69c0,1.02.07,1.15,1.03,1.28l4.1.44v3.47l-16.19-.02Z" style="fill:#fff;"/><path id="Path_1716" d="m648.23,210.38c-3.34,1.85-7.12,2.78-10.94,2.69-10.94,0-15.61-6.72-15.61-16.82,0-12.15,7.03-17.46,16.76-17.46,3.34-.04,6.66.63,9.72,1.98v8.52l-4.28-.19-.77-4.22c-.02-.44-.33-.81-.77-.9-1.41-.41-2.88-.6-4.35-.58-5.68,0-10.24,3.33-10.24,12.47s4.22,12.41,10.43,12.41c2.87,0,5.69-.73,8.2-2.11l1.84,4.21Z" style="fill:#fff;"/><path id="Path_1717" d="m707.89,209.67c-4.73,2.47-10.02,3.64-15.35,3.39-15.61,0-21.87-9.85-21.87-23.93s7.61-23.97,22.96-23.97c4.94-.15,9.83,1.05,14.13,3.47v10.24l-4.35-.26-1.09-6.07c-.07-.58-.19-.96-.83-1.15-2.62-.91-5.36-1.38-8.13-1.41-10.04,0-16.57,6.66-16.57,19.19s6.14,19.13,16.12,19.13c3.04.09,6.07-.37,8.95-1.35.52-.13.89-.61.9-1.15l1.03-5.76h4.1v9.63Z" style="fill:#fff;"/><path id="Path_1718" d="m740.56,195.73c0-8.38-3.07-12.09-9.28-12.09s-9.91,3.71-9.91,12.15,3.26,12.6,9.59,12.6,9.6-3.9,9.6-12.66m-25.2,0c0-10.04,5.12-16.95,16.05-16.95s15.16,6.97,15.16,16.57c0,10.74-4.86,17.72-15.8,17.72s-15.41-7.17-15.41-17.35" style="fill:#fff;"/><path id="Path_1719" d="m751.15,212.29v-3.52l3.97-.38c.9-.07,1.02-.32,1.02-1.28v-37.16c0-.7-.19-1.15-.83-1.35l-3.84-1.21.58-3.39h9.91v43.11c0,1.02.07,1.15,1.03,1.28l3.84.44v3.47l-15.67-.02Z" style="fill:#fff;"/><path id="Path_1720" d="m772.45,212.29v-3.52l3.97-.38c.9-.07,1.02-.32,1.02-1.28v-37.16c0-.7-.19-1.15-.83-1.35l-3.84-1.21.58-3.39h9.91v43.11c0,1.02.07,1.15,1.03,1.28l3.84.44v3.47l-15.67-.02Z" style="fill:#fff;"/><path id="Path_1721" d="m814.39,192.85c-.13-7.29-3.47-9.4-7.35-9.4-4.29,0-7.87,2.3-8.38,9.4h15.73Zm5.05,17.35c-3.56,1.95-7.58,2.95-11.64,2.88-11.58,0-15.35-7.61-15.35-17.14,0-11.71,6.53-17.14,14.59-17.14s13.18,4.22,13.18,15.29c0,.83-.07,2.12-.13,3.2h-21.49c.19,6.46,2.81,10.88,9.78,10.88,3.22.05,6.39-.74,9.21-2.3l1.86,4.35Z" style="fill:#fff;"/><path id="Path_1722" d="m841.06,183.44c-4.67,0-8,2.31-8,7.3,0,3.79,2.18,6.84,7.8,6.84,3.85.43,7.33-2.34,7.76-6.19.04-.34.05-.69.04-1.04.17-3.68-2.67-6.8-6.35-6.97-.42-.02-.84,0-1.26.06m-6.66,29.17c-1.57,1.36-2.57,3.25-2.81,5.31,0,3.47,3.58,4.22,9.85,4.29,3.39,0,9.91-.51,9.91-5.36,0-3-2.5-3.26-6.65-3.64l-10.3-.59Zm17.59-28.65c1.58,1.85,2.42,4.22,2.37,6.66,0,7.55-5.82,11.77-13.3,11.77-1.84.06-3.68-.2-5.43-.77l-2.88,5.56,7.86.44c11.51.63,16.7,1.21,16.7,8.76,0,6.33-5.44,10.3-16.57,10.3s-14.9-3-14.9-7.87c.21-2.85,1.63-5.48,3.9-7.23-1.65-.34-2.83-1.79-2.82-3.47.12-1.29.61-2.51,1.41-3.52,1.03-1.47,2.37-3.07,3.52-4.61-3.17-1.9-5.02-5.4-4.8-9.08,0-7.16,5.18-12.15,13.88-12.15,1.91-.04,3.82.18,5.68.63h11.38v4.1l-6,.47Z" style="fill:#fff;"/><path id="Path_1723" d="m883.96,192.85c-.13-7.29-3.47-9.4-7.35-9.4-4.29,0-7.89,2.3-8.38,9.4h15.73Zm5.05,17.35c-3.56,1.95-7.58,2.95-11.64,2.88-11.58,0-15.35-7.61-15.35-17.14,0-11.71,6.53-17.14,14.59-17.14s13.18,4.22,13.18,15.29c0,.83-.07,2.12-.13,3.2h-21.49c.19,6.46,2.81,10.88,9.78,10.88,3.22.05,6.39-.74,9.21-2.3l1.86,4.35Z" style="fill:#fff;"/></g></g></g></g></svg>