<?xml version="1.0" encoding="UTF-8"?><svg id="Layer_2" xmlns="http://www.w3.org/2000/svg" xmlns:xlink="http://www.w3.org/1999/xlink" viewBox="0 0 854.34 843.72"><defs><clipPath id="clippath"><rect width="854.34" height="843.72" style="fill:none;"/></clipPath></defs><g id="Layer_1-2"><g id="Group_773"><g style="clip-path:url(#clippath);"><g id="Group_772"><path id="Path_1550" d="m532.66,13.2c-.19.82-.37,1.59-.63,2.55-12.02,44.18-32.51,115.46-41.26,160.42-8.28,42.58-14.03,85.4-12,128.93,2.14,46.35,24.52,71.3,62.44,71.4,56.48.13,207.16-59.22,276.96-120.6-52.86-120.44-158.12-209.93-285.51-242.7" style="fill:#20845a;"/><path id="Path_1551" d="m42.13,242.65c69.14,67.11,238.65,135.95,284.9,132.96,27.7-1.79,43.16-26.82,47.34-60.8,4.59-37.33-.22-74.03-5.99-110.66-8.62-54.63-31.55-135.09-46.24-188.36-.27-.97-.43-1.75-.62-2.57C199.11,44.73,96.85,128.7,42.13,242.65" style="fill:#f6ad32;"/><path id="Path_1552" d="m817.82,601.71c-67.66-59.24-216.88-120.46-276.61-120.3-37.92.09-60.29,25.06-62.45,71.4-2.02,43.53,3.73,86.35,12,128.93,8.76,44.96,29.24,116.25,41.26,160.43.16.58.25,1.02.39,1.54,127.2-32.65,232.39-121.85,285.41-242" style="fill:#0081a5;"/><path id="Path_1553" d="m327.03,482.29c-46.17-2.99-215.16,65.62-284.53,132.62,54.84,113.67,157.02,197.37,279.27,228.76.13-.53.22-.97.39-1.56,14.68-53.26,37.61-133.71,46.23-188.35,5.78-36.64,10.59-73.34,5.99-110.67-4.18-33.98-19.63-59.01-47.34-60.8" style="fill:#cd6319;"/><path id="Path_1554" d="m305.79,91.99c-2.24-7.1,1.69-14.67,8.79-16.92,7.1-2.24,14.67,1.69,16.92,8.79,2.24,7.1-1.69,14.67-8.79,16.92-.02,0-.05.02-.07.02v.08c-1.19.36-2.43.54-3.67.53-6,.15-11.38-3.7-13.17-9.43m-37.37,15.67c-3.17-6.89-.15-15.05,6.75-18.21,6.89-3.17,15.05-.15,18.21,6.75,3.17,6.89.15,15.05-6.75,18.21-1.73.8-3.61,1.22-5.52,1.25-5.46.14-10.47-3.01-12.7-8m-35.28,19.77c-3.76-6.46-1.58-14.74,4.88-18.5s14.74-1.58,18.5,4.88c3.76,6.46,1.58,14.74-4.88,18.5-.01,0-.03.02-.04.02-1.97,1.09-4.19,1.7-6.44,1.75-4.92.15-9.53-2.41-12.02-6.65m-32.79,23.66c-4.43-5.96-3.18-14.38,2.78-18.81,5.96-4.43,14.38-3.18,18.81,2.78,4.43,5.96,3.18,14.38-2.78,18.81-2.24,1.66-4.93,2.59-7.72,2.65-4.36.1-8.5-1.92-11.09-5.43m-30,27.21c-5.12-5.4-4.88-13.93.52-19.05s13.93-4.88,19.05.52,4.88,13.93-.52,19.05c-.02.01-.03.03-.05.04-5.42,5.04-13.89,4.79-19-.57m-26.87,30.38c-5.82-4.81-6.64-13.43-1.82-19.25,4.81-5.82,13.43-6.64,19.25-1.82,5.82,4.81,6.64,13.43,1.82,19.25-2.52,3.05-6.23,4.85-10.18,4.96-3.3.1-6.53-1.01-9.07-3.13m-23.21,33.09c-6.09-4.18-7.64-12.52-3.46-18.61,4.18-6.09,12.52-7.64,18.61-3.46,6.09,4.18,7.64,12.52,3.46,18.61-2.45,3.57-6.49,5.74-10.83,5.81-2.78.06-5.5-.76-7.79-2.35m-19.28,35.62c-6.47-3.45-8.93-11.49-5.48-17.96,3.45-6.47,11.49-8.93,17.96-5.48s8.93,11.49,5.48,17.96c-2.28,4.27-6.7,6.97-11.54,7.04-2.24.06-4.46-.48-6.42-1.56" style="fill:#fff;"/><path id="Path_1555" d="m341.48,250.12c-1.4-3.46.28-7.39,3.74-8.79,3.36-1.35,7.19.18,8.68,3.48,1.46,3.43-.1,7.39-3.5,8.91-.86.35-1.78.53-2.71.54-2.7-.04-5.14-1.66-6.21-4.14m161.05,4.05c-3.44-1.45-5.04-5.41-3.59-8.85s5.41-5.04,8.85-3.59c3.44,1.45,5.04,5.41,3.59,8.85-.01.03-.02.05-.03.08-1.08,2.47-3.52,4.06-6.21,4.06-.9,0-1.79-.18-2.61-.54m-184.62,9c-1.92-3.16-.92-7.28,2.24-9.21,3.16-1.92,7.28-.92,9.21,2.24.03.04.05.08.08.13,1.92,3.12.94,7.21-2.18,9.13-.02.01-.05.03-.07.04v.09c-1.07.6-2.29.92-3.52.91-2.38,0-4.57-1.27-5.76-3.33m207.65,2.96c-3.18-1.97-4.15-6.14-2.18-9.32,1.97-3.18,6.14-4.15,9.32-2.18,3.15,1.95,4.14,6.08,2.22,9.25-1.25,2.02-3.46,3.25-5.84,3.24-1.23-.03-2.44-.37-3.5-.99m-229.25,13.23c-2.34-2.88-1.89-7.11.99-9.45,0,0,0,0,0,0,2.87-2.38,7.13-1.99,9.51.88,2.38,2.87,1.99,7.13-.88,9.51-.05.04-.11.09-.16.13-2.92,2.28-7.13,1.8-9.46-1.08m250.58,1.8h0c-2.91-2.36-3.35-6.63-.99-9.54,2.36-2.91,6.63-3.35,9.54-.99,2.91,2.36,3.35,6.63.99,9.54,0,0,0,0,0,0-1.29,1.56-3.19,2.48-5.22,2.52-1.57-.02-3.08-.55-4.31-1.53m-269.86,17.09c-2.67-2.57-2.79-6.81-.27-9.54,2.56-2.68,6.82-2.78,9.5-.22.01.01.03.02.04.04,2.68,2.57,2.79,6.82.26,9.54-1.31,1.32-3.09,2.06-4.95,2.06-1.72,0-3.37-.67-4.59-1.88m288.91.63c-2.54-2.69-2.41-6.93.28-9.47.02-.02.05-.05.08-.07,2.72-2.54,6.97-2.42,9.54.27,2.54,2.7,2.4,6.94-.3,9.48-.02.02-.04.04-.06.06-1.22,1.21-2.87,1.89-4.59,1.89-1.88,0-3.67-.78-4.94-2.16m-305.46,20.69c-3.01-2.19-3.67-6.4-1.49-9.4s6.4-3.67,9.4-1.49h0c3.03,2.17,3.72,6.38,1.55,9.4,0,.01-.02.02-.02.03v-.08c-1.25,1.79-3.3,2.87-5.49,2.88-1.43,0-2.82-.48-3.96-1.35m322.02-.54h0c-2.11-3.06-1.34-7.26,1.72-9.37,2.99-2.07,7.09-1.38,9.25,1.54,2.15,3.04,1.47,7.24-1.53,9.45-1.18.77-2.55,1.17-3.96,1.17-2.17.02-4.22-1.02-5.48-2.79m-335.52,23.94c-3.28-1.77-4.51-5.87-2.74-9.15,1.77-3.28,5.87-4.51,9.15-2.74,3.28,1.77,4.51,5.87,2.74,9.15-1.17,2.17-3.44,3.53-5.91,3.55-1.13-.01-2.24-.29-3.24-.81m349.18-1.8c-1.76-3.21-.58-7.24,2.63-9,.06-.03.11-.06.17-.09,3.27-1.72,7.32-.46,9.04,2.81.01.02.02.04.03.07,1.8,3.23.63,7.31-2.6,9.11-3.23,1.8-7.31.63-9.11-2.6-.06-.1-.11-.2-.16-.3" style="fill:#fff;"/><path id="Path_1556" d="m96.04,598.1c-3.49-6.58-.99-14.75,5.59-18.24,6.58-3.49,14.75-.99,18.24,5.59,3.49,6.57,1,14.72-5.55,18.23-2,1.07-4.24,1.6-6.5,1.53-4.92-.05-9.43-2.77-11.77-7.1m21.7,35.94c-4.21-6.15-2.63-14.54,3.52-18.75,6.15-4.21,14.54-2.63,18.75,3.52,4.21,6.15,2.63,14.54-3.52,18.75-2.33,1.54-5.07,2.35-7.86,2.31-4.36-.05-8.43-2.23-10.89-5.84m25.59,33.24h0c-4.84-5.66-4.17-14.17,1.49-19.01,5.66-4.84,14.17-4.17,19.01,1.49,4.82,5.64,4.18,14.12-1.44,18.97-2.53,2.14-5.73,3.3-9.04,3.28-3.87-.04-7.53-1.77-10.01-4.73m29.17,30.2h-.09c-5.45-5.09-5.75-13.63-.67-19.09,5.07-5.44,13.58-5.75,19.04-.71,5.46,5.02,5.82,13.51.8,18.98-.03.03-.06.07-.09.1-4.96,5.44-13.38,5.83-18.82.87-.06-.05-.12-.11-.17-.16m32.26,26.75c-6.02-4.43-7.3-12.9-2.87-18.92,4.43-6.02,12.9-7.3,18.92-2.87,6.02,4.43,7.3,12.9,2.87,18.92-2.6,3.53-6.75,5.58-11.14,5.5-2.81-.05-5.53-.97-7.79-2.64m35.12,23.01c-6.43-3.74-8.64-11.97-4.95-18.43,3.73-6.45,11.98-8.66,18.43-4.93,6.45,3.73,8.66,11.98,4.93,18.43-2.45,4.23-6.99,6.81-11.88,6.74-2.3-.03-4.56-.65-6.54-1.82m37.52,18.82c-6.82-3-9.91-10.97-6.91-17.79,2.97-6.75,10.82-9.86,17.61-6.98,6.85,2.95,10.02,10.9,7.06,17.76-2.17,5.04-7.17,8.26-12.66,8.16-1.76-.03-3.5-.42-5.11-1.15m39.37,14.52c-7.1-2.2-11.08-9.75-8.87-16.85,2.2-7.1,9.75-11.08,16.85-8.87,7.1,2.2,11.08,9.75,8.87,16.85-1.77,5.71-7.1,9.57-13.08,9.48-1.28-.02-2.55-.23-3.78-.6" style="fill:#fff;"/><path id="Path_1557" d="m244.22,520.93c-1.74-3.3-.48-7.39,2.82-9.13,3.3-1.74,7.39-.48,9.13,2.82,1.73,3.28.49,7.35-2.78,9.11-1,.51-2.11.79-3.24.8-2.49,0-4.78-1.39-5.94-3.6m14.76,23.67c-2.19-3.03-1.51-7.26,1.52-9.45s7.26-1.51,9.45,1.52v.1c2.17,2.98,1.51,7.15-1.47,9.31-.02.02-.04.03-.06.05-1.15.84-2.54,1.28-3.96,1.25-2.17.03-4.22-1.01-5.49-2.78m17.81,21.49c-2.58-2.68-2.51-6.95.18-9.54,2.68-2.58,6.95-2.51,9.54.18,2.58,2.68,2.51,6.95-.18,9.54,0,0,0,0,0,0-1.22,1.21-2.87,1.89-4.59,1.89-1.86,0-3.64-.75-4.95-2.07m20.51,18.89c-2.89-2.39-3.31-6.67-.92-9.56,2.33-2.83,6.48-3.3,9.39-1.06v.09c2.9,2.31,3.38,6.54,1.07,9.45-2.36,2.88-6.59,3.36-9.54,1.08m22.94,15.93v-.09c-3.14-1.91-4.13-6.01-2.22-9.15,1.91-3.14,6.01-4.13,9.15-2.22,3.14,1.91,4.13,6.01,2.22,9.15-1.22,2-3.39,3.21-5.73,3.19-1.2,0-2.38-.3-3.42-.89m24.74,12.59c-3.4-1.46-4.97-5.41-3.51-8.81h0c1.41-3.39,5.29-4.99,8.67-3.58.05.02.1.04.15.06,3.42,1.44,5.04,5.38,3.6,8.81-1.07,2.49-3.5,4.11-6.21,4.14-.94,0-1.86-.21-2.7-.63" style="fill:#fff;"/><path id="Path_1558" d="m427.31,552.27c2.52-.33,4.63-2.05,5.45-4.45,1.2-3.03,1.96-6.22,2.26-9.46,1.62-28.82,3.34-57.64,4.33-86.48.26-7.56,2.73-10.65,10.12-11.56,12.96-1.59,25.85-3.74,38.69-6.14,3.96-.74,10.14-.64,10.29-6.01.16-5.69-6.22-5.45-10.08-6.18-13.62-2.63-27.35-4.82-41.1-6.71-5.33-.73-7.4-3-7.85-8.3-1.09-12.76-2.56-25.48-4.26-38.17-.76-5.68-.19-14.04-7.85-14.12-8.3-.08-7.65,8.79-8.48,14.55-1.76,12.11-2.75,24.35-3.76,36.56-.48,5.63-2.37,8.8-8.64,9.62-13.76,1.8-27.44,4.22-41.08,6.77-3.76.7-9.67.72-9.7,5.68-.02,5.4,6.11,5.5,10.08,6.23,13.11,2.45,26.26,4.75,39.49,6.33,7.2.86,9.56,4.04,9.79,11.05.91,27.77,2.3,55.51,3.52,83.27.15,4.37,1.08,8.67,2.77,12.7.86,2.66,3.22,4.56,6,4.85m.52-291.52c7.04.57,10.64,6.25,13.32,12.74,5.18,12.58,5.11,26.11,6.62,39.33,2.9,25.43,5.55,50.88,8.25,76.33.62,5.86,4.19,8.61,9.54,9.52,16.1,2.73,32.21,5.38,48.32,8.07,13.95,2.34,27.98,4.45,41.12,10.09,5.59,2.4,11.58,5.26,11.63,12.28.04,7.06-5.93,9.91-11.53,12.28-18.55,7.86-38.52,9.37-58.06,12.76-9.93,1.73-19.9,3.17-29.82,4.91-7.79,1.36-11.19,5.75-11.56,14.09-2.96,66.94-6.29,133.85-9.61,200.77-.49,9.82-1.85,19.58-6.72,28.38-2.72,4.9-6.22,9.02-12.63,8.86-6.07-.15-9.1-4.3-11.7-8.92-7.56-13.43-6.81-28.44-7.56-43.01-3.1-61.75-5.81-123.52-8.66-185.29-.49-10.61-2.86-13.29-15.01-15.48-23.83-4.29-48-6.77-71.55-12.65-5-1.29-9.87-3.04-14.55-5.23-4.95-2.28-10.21-5.01-10-11.59.21-6.37,5.28-9.2,10.25-11.6,7.93-3.64,16.33-6.15,24.96-7.46,19.85-3.4,39.74-6.62,59.62-9.86,13.72-2.24,15.03-3.91,16.5-17.6,3.57-33.02,7.37-66.01,11.19-99,.74-5.98,3-11.68,6.55-16.56,2.39-3.83,6.58-6.17,11.09-6.18" style="fill:#003041;"/><path id="Path_1559" d="m535.4,102.46c-7.1-2.26-11.02-9.85-8.75-16.95,2.26-7.1,9.85-11.02,16.95-8.75.09.03.18.06.27.09,7.06,2.32,10.91,9.93,8.59,16.99-1.7,5.18-6.35,8.82-11.78,9.22-1.78.16-3.57-.04-5.27-.6m36.17,14.36c-6.73-3.16-9.66-11.15-6.57-17.91,3.13-6.79,11.17-9.75,17.95-6.62,6.79,3.13,9.75,11.17,6.62,17.95h0c-2.1,4.44-6.43,7.41-11.33,7.79-2.29.16-4.59-.26-6.68-1.21m34.39,18.27h0c-6.33-3.87-8.32-12.13-4.46-18.46,3.87-6.33,12.13-8.32,18.46-4.46,6.33,3.87,8.32,12.13,4.46,18.46-2.26,3.7-6.16,6.08-10.48,6.39-2.8.2-5.59-.47-7.98-1.93m32.13,22.05h0c-5.85-4.58-6.88-13.03-2.3-18.87,4.54-5.8,12.9-6.87,18.75-2.39l.08-.09c5.9,4.57,6.97,13.05,2.4,18.95-4.57,5.9-13.05,6.97-18.95,2.4m29.43,25.59c-5.32-5.23-5.39-13.79-.15-19.1,5.16-5.24,13.57-5.39,18.91-.34v.09c5.34,5.17,5.48,13.69.32,19.03-2.3,2.38-5.4,3.83-8.7,4.07-3.83.27-7.61-1.09-10.38-3.74m26.4,28.61c-4.83-5.67-4.16-14.19,1.51-19.02,5.67-4.83,14.19-4.16,19.02,1.51.1.11.19.23.29.35,4.68,5.76,3.87,14.22-1.83,18.98-2.19,1.74-4.84,2.79-7.63,3.01-4.35.33-8.59-1.47-11.37-4.84m23.01,31.4c-4.09-6.23-2.35-14.59,3.88-18.68,6.23-4.09,14.59-2.35,18.68,3.88,4.09,6.23,2.35,14.59-3.88,18.68-.02.02-.05.03-.07.05-1.88,1.27-4.06,2.03-6.33,2.18-4.91.39-9.63-1.96-12.28-6.11m19.3,33.74c-3.27-6.68-.51-14.74,6.17-18.01,6.68-3.27,14.74-.51,18.01,6.17,3.26,6.66.52,14.7-6.12,17.99-1.59.76-3.3,1.22-5.05,1.36-5.47.42-10.64-2.56-13.01-7.51" style="fill:#fff;"/><path id="Path_1560" d="m740.99,597.21c-6.61-3.32-9.28-11.37-5.95-17.98.01-.02.02-.04.03-.07h-.08c3.31-6.68,11.4-9.42,18.09-6.12,6.68,3.31,9.42,11.4,6.12,18.09-2.45,4.95-7.67,7.91-13.18,7.47-1.75-.12-3.46-.59-5.03-1.39m-21.42,34.35c-6.22-4.1-7.96-12.47-3.89-18.71,4.13-6.2,12.51-7.88,18.71-3.75,6.12,4.08,7.85,12.3,3.89,18.5-2.72,4.13-7.46,6.46-12.39,6.08-2.25-.19-4.42-.91-6.33-2.11m-25.19,31.62c-5.74-4.76-6.53-13.26-1.78-19,4.76-5.74,13.26-6.53,19-1.78,5.68,4.79,6.47,13.25,1.77,19-2.79,3.41-7.08,5.24-11.47,4.89-2.78-.21-5.41-1.3-7.52-3.11m-28.56,28.66c-5.17-5.32-5.06-13.82.26-18.99.01-.01.03-.03.04-.04v-.08c5.38-5.17,13.93-5,19.1.38s5,13.93-.38,19.1c-2.78,2.67-6.56,4.02-10.4,3.73-3.29-.23-6.36-1.69-8.62-4.09m-31.64,25.34c-4.58-5.89-3.51-14.38,2.38-18.95,5.89-4.58,14.38-3.51,18.95,2.38,4.58,5.89,3.51,14.38-2.38,18.95-.03.02-.06.05-.1.07-5.9,4.47-14.3,3.38-18.86-2.46m-34.24,21.53c-3.83-6.38-1.76-14.65,4.62-18.47,6.38-3.83,14.65-1.76,18.47,4.62,3.83,6.38,1.76,14.65-4.62,18.47-2.39,1.44-5.18,2.09-7.96,1.88-4.35-.33-8.27-2.75-10.51-6.5m-36.56,17.65c-3.12-6.79-.14-14.82,6.65-17.94,6.79-3.12,14.82-.14,17.94,6.65,3.11,6.77.16,14.79-6.61,17.92-6.8,3.11-14.84.15-17.99-6.63m-38.21,13.39c-2.42-7.06,1.34-14.74,8.4-17.16,7.06-2.42,14.74,1.34,17.16,8.4.03.09.06.19.09.28,2.34,7.04-1.47,14.64-8.51,16.98-.04.01-.07.02-.11.04-1.67.59-3.44.82-5.2.68-5.43-.42-10.09-4.05-11.83-9.21" style="fill:#fff;"/><path id="Path_1561" d="m338.24,701.23h0c-4.86-1.41-7.66-6.49-6.25-11.35,1.41-4.86,6.49-7.66,11.35-6.25,4.86,1.41,7.66,6.49,6.25,11.35-1.12,3.86-4.63,6.55-8.65,6.61-.91.01-1.82-.11-2.7-.36" style="fill:#fff;"/><path id="Path_1562" d="m307.92,689.72h-.09c-4.66-1.97-6.84-7.34-4.88-12,1.97-4.66,7.34-6.84,12-4.88,4.66,1.97,6.84,7.34,4.88,12-1.41,3.35-4.67,5.54-8.3,5.6-1.24.02-2.47-.22-3.6-.72" style="fill:#fff;"/><path id="Path_1563" d="m279.04,674.87c-4.24-2.53-5.62-8.01-3.1-12.24,2.53-4.24,8.01-5.62,12.24-3.1,4.24,2.53,5.62,8.01,3.1,12.24-1.61,2.7-4.51,4.35-7.65,4.36-1.61-.01-3.2-.45-4.59-1.26" style="fill:#fff;"/><path id="Path_1564" d="m251.96,656.88h0c-3.98-2.98-4.78-8.62-1.8-12.6,2.98-3.98,8.62-4.78,12.6-1.8,3.98,2.98,4.78,8.62,1.8,12.6,0,0,0,0,0,0-1.69,2.28-4.36,3.62-7.2,3.6-1.94-.02-3.83-.65-5.4-1.8" style="fill:#fff;"/><path id="Path_1565" d="m227.13,636h0c-3.68-3.35-3.94-9.05-.59-12.72,3.35-3.68,9.05-3.94,12.72-.59.06.06.13.12.19.18,3.6,3.4,3.77,9.07.37,12.67,0,0,0,0-.01.01-3.34,3.63-8.99,3.86-12.61.52-.02-.02-.05-.05-.07-.07" style="fill:#fff;"/><path id="Path_1566" d="m204.72,612.44c-3.23-3.77-2.79-9.44.97-12.67,0,0,.01-.01.02-.02,3.84-3.17,9.52-2.69,12.78,1.08h-.09c3.23,3.7,2.85,9.33-.85,12.56-1.66,1.44-3.79,2.23-5.98,2.19-2.64.03-5.14-1.13-6.84-3.15" style="fill:#fff;"/><path id="Path_1567" d="m185.12,586.62c-2.78-4.12-1.7-9.72,2.43-12.51,4.12-2.78,9.72-1.7,12.51,2.43,2.78,4.12,1.7,9.72-2.43,12.51,0,0,0,0,0,0-1.5.98-3.25,1.5-5.04,1.52-3,.03-5.81-1.45-7.47-3.95" style="fill:#fff;"/><path id="Path_1568" d="m168.46,558.72c-2.21-4.37-.46-9.71,3.91-11.92,4.37-2.21,9.71-.46,11.92,3.91,2.21,4.37.46,9.71-3.91,11.92-1.21.61-2.55.94-3.9.95-3.37-.02-6.45-1.89-8.02-4.87" style="fill:#fff;"/><path id="Path_1569" d="m675.03,555.64c-4.42-2.21-6.26-7.55-4.14-12.01,2.18-4.48,7.57-6.35,12.05-4.17,4.48,2.18,6.35,7.57,4.17,12.05-1.59,3.18-4.88,5.15-8.43,5.05-1.27-.05-2.51-.36-3.65-.92m-16.21,26.96c-4.26-2.55-5.66-8.07-3.11-12.33,2.55-4.26,8.07-5.66,12.33-3.11.14.08.28.17.41.26,4.19,2.63,5.45,8.16,2.82,12.34-.01.02-.03.04-.04.06-1.68,2.71-4.68,4.3-7.86,4.17-1.61-.07-3.18-.55-4.55-1.4m-19.11,24.98c-3.86-3.12-4.45-8.78-1.33-12.64,3.12-3.86,8.78-4.45,12.64-1.33h0c3.83,3.08,4.44,8.68,1.36,12.51-.01.01-.02.03-.03.04-1.78,2.2-4.47,3.45-7.3,3.38-1.95-.03-3.83-.72-5.33-1.96m-21.85,22.73c-3.48-3.57-3.43-9.27.11-12.78,3.54-3.5,9.24-3.47,12.74.07,3.5,3.54,3.47,9.24-.07,12.74-1.76,1.74-4.17,2.68-6.65,2.6-2.3-.07-4.49-1.01-6.13-2.63m-24.1,20.16c-3.07-3.89-2.4-9.53,1.49-12.6s9.53-2.4,12.6,1.49c3.05,3.87,2.4,9.48-1.45,12.56-1.7,1.28-3.78,1.95-5.9,1.9-2.63-.07-5.1-1.3-6.74-3.36m-26.35,17.29c-2.59-4.25-1.25-9.8,3-12.4,4.2-2.57,9.69-1.28,12.32,2.88,2.58,4.24,1.29,9.76-2.91,12.42-4.25,2.52-9.72,1.24-12.42-2.9m-27.98,14.37c-2.25-4.42-.48-9.82,3.93-12.07s9.82-.48,12.07,3.93c.06.11.11.23.17.35,2.12,4.49.23,9.85-4.24,12.02-1.3.61-2.73.9-4.17.86-3.34-.09-6.34-2.06-7.76-5.09m-29.5,10.99c-1.59-4.68.92-9.77,5.6-11.36,4.68-1.59,9.77.92,11.36,5.6,1.58,4.65-.88,9.7-5.51,11.33-1.04.39-2.14.57-3.25.52-3.73-.13-6.99-2.56-8.2-6.09" style="fill:#fff;"/><path id="Path_1570" d="m499.03,609.56c-1.45-3.42.14-7.37,3.57-8.82,3.36-1.43,7.25.09,8.76,3.42,1.47,3.43-.09,7.41-3.5,8.92-.82.36-1.71.54-2.61.54-2.69,0-5.13-1.58-6.21-4.05" style="fill:#fff;"/><path id="Path_1571" d="m523.32,597.95c-1.89-3.21-.82-7.34,2.39-9.23,3.14-1.85,7.19-.87,9.13,2.22,1.97,3.12,1.03,7.25-2.09,9.22-.02.01-.05.03-.07.04-1.05.66-2.27,1-3.52.99-2.37-.01-4.57-1.23-5.84-3.24" style="fill:#fff;"/><path id="Path_1572" d="m545.9,583.2c-2.37-2.9-1.93-7.17.97-9.54,2.9-2.37,7.17-1.93,9.54.97,2.37,2.9,1.93,7.17-.97,9.54,0,0,0,0,0,0-2.89,2.37-7.16,1.94-9.52-.96,0,0,0-.01-.01-.02" style="fill:#fff;"/><path id="Path_1573" d="m566.33,565.46c-2.73-2.51-2.91-6.75-.41-9.48.02-.02.03-.03.05-.05,2.58-2.73,6.89-2.85,9.62-.27,2.64,2.59,2.76,6.8.28,9.54-1.28,1.36-3.07,2.14-4.95,2.14-1.71-.04-3.35-.71-4.59-1.89" style="fill:#fff;"/><path id="Path_1574" d="m584.14,545.22c-3.06-2.16-3.78-6.39-1.62-9.44,0,0,0,0,0,0,2.16-3.03,6.37-3.74,9.4-1.57,3.03,2.16,3.74,6.37,1.57,9.4-1.25,1.79-3.31,2.83-5.49,2.79-1.38.02-2.73-.39-3.87-1.17" style="fill:#fff;"/><path id="Path_1575" d="m598.99,522.73c-3.27-1.68-4.56-5.69-2.88-8.95.02-.04.05-.09.07-.13,1.72-3.31,5.79-4.6,9.1-2.88s4.6,5.79,2.88,9.1c-1.19,2.22-3.51,3.6-6.03,3.59-1.09.04-2.17-.21-3.14-.72" style="fill:#fff;"/><path id="Path_1576" d="m145.31,427.06c0-25.31,3.51-50.49,10.45-74.83,1.77-5.95-.98-12.31-6.52-15.1-44.33-22.15-86.9-48.36-115.93-74.8-44.52,106.56-44.4,226.54.33,333.01,29.24-26.56,72.01-52.88,116.57-75.08,5.6-2.8,8.35-9.25,6.5-15.23-7.56-25.3-11.39-51.57-11.39-77.97" style="fill:#003041;"/><path id="Path_1577" d="m854.34,428.43c.03-52.17-9.47-103.9-28.03-152.66-30.83,25.71-74.33,50.89-119.14,71.57-5.59,2.59-8.54,8.8-7.01,14.77,5.21,21.26,7.85,43.06,7.86,64.95,0,19.98-2.19,39.9-6.54,59.4-.54,2.39-1.39,5.69-2.22,8.87-1.58,6,1.4,12.27,7.05,14.84,6.24,2.88,12.46,5.84,18.64,8.89,38.23,18.84,74.37,40.68,101.04,62.85,18.77-49,28.38-101.02,28.35-153.49" style="fill:#003041;"/><path id="Path_1578" d="m427.17,0c-29.24,0-58.39,2.98-87.02,8.92.13.59.25,1.12.44,1.82l4.23,15.29c14.46,52.22,15.82,57.16,25.89,107.54.3,1.58,1.03,5.36,1.83,9.32,1.39,6.68,7.77,11.09,14.51,10.05,26.36-3.74,53.11-3.73,79.46.02,7.01,1.09,13.58-3.7,14.67-10.71,0-.03,0-.05.01-.08.85-6,1.72-12.15,2.29-15.11,7.31-37.58,10.83-46.48,22.9-90.16,2.59-9.39,5.02-18.21,7.19-26.15.19-.69.32-1.26.46-1.84C485.46,2.96,456.35-.01,427.17,0" style="fill:#003041;"/></g></g></g></g></svg>